<svg xmlns="http://www.w3.org/2000/svg" width="385" height="381" viewBox="0 0 385 381">
  <defs>
    <style>
      .cls-1 {
        fill: #f4f9f4;
        fill-rule: evenodd;
      }
    </style>
  </defs>
  <path id="Shape" class="cls-1" d="M451.884,1542.67c-15.117,0-31.6,3.19-50.447,9.67-3.063,1.06-6.047,2.14-8.933,3.19-17.291,6.3-32.225,11.73-51.6,5.74-7.992-2.47-17.938-5.54-23.636-11.91a1.27,1.27,0,0,0-1.778-.1,1.236,1.236,0,0,0-.107,1.76c6.163,6.88,16.48,10.07,24.77,12.63,20.2,6.24,35.5.67,53.225-5.78,2.875-1.04,5.848-2.13,8.89-3.17,27.96-9.62,50.579-11.88,71.186-7.14a1.257,1.257,0,0,0,1.513-.93,1.237,1.237,0,0,0-.941-1.49A97.933,97.933,0,0,0,451.884,1542.67Zm-35.1-31.74c-14.514,0-26.323,5.73-38.709,11.74-3.811,1.85-7.753,3.76-11.836,5.53-14.656,6.37-26.5,7.13-35.194,2.25a1.267,1.267,0,0,0-1.718.47,1.241,1.241,0,0,0,.475,1.7c9.428,5.29,22.029,4.57,37.45-2.14,4.132-1.79,8.1-3.72,11.932-5.58,14.4-6.98,28.006-13.58,45.91-10.83,18.885,2.89,28.731,13.22,40.132,25.17,2.267,2.38,4.611,4.84,7.1,7.32a1.263,1.263,0,0,0,1.781.01,1.234,1.234,0,0,0,.007-1.76c-2.47-2.47-4.8-4.91-7.059-7.28-11.718-12.29-21.84-22.9-41.578-25.93A57.476,57.476,0,0,0,416.784,1510.93Zm25.023,23.61c-10.847,0-23.538,2.75-37.935,8.23-3.345,1.28-6.653,2.64-9.851,3.96-4.483,1.86-9.119,3.77-13.844,5.42-7.493,2.61-18.685,5.44-29.459,4.05-8.274-1.08-24.924-5.88-28.647-11.63a1.27,1.27,0,0,0-1.74-.38,1.236,1.236,0,0,0-.382,1.72c4.749,7.34,23.976,11.92,30.442,12.76,11.266,1.46,22.872-1.46,30.624-4.17,4.792-1.67,9.461-3.6,13.976-5.46,3.182-1.32,6.473-2.68,9.785-3.94,21.5-8.18,38.976-10.16,51.954-5.86a1.26,1.26,0,0,0,1.594-.78,1.244,1.244,0,0,0-.794-1.58A49.8,49.8,0,0,0,441.807,1534.54Zm-22.84-15.29a75.335,75.335,0,0,0-11.4,1.01c-12.5,1.92-22.209,6.49-31.6,10.92a148.828,148.828,0,0,1-19.13,7.91c-5.434,1.69-18.711,3.28-30.065-2.77a1.268,1.268,0,0,0-1.707.5,1.242,1.242,0,0,0,.511,1.69c12.1,6.46,26.231,4.76,32.017,2.96a150.069,150.069,0,0,0,19.457-8.04c9.228-4.35,18.77-8.84,30.9-10.7,7.662-1.18,15.936-1.84,24.515,1.28a76.122,76.122,0,0,1,23.758,14.72,1.273,1.273,0,0,0,1.781-.06,1.235,1.235,0,0,0-.064-1.76,77.417,77.417,0,0,0-24.607-15.24A41.3,41.3,0,0,0,418.967,1519.25Zm14.369,3.27a1.263,1.263,0,0,0-1.2.87c-0.245.75-.489,1.51-0.733,2.27-0.97,3.02-1.973,6.14-3.188,9.04a1.24,1.24,0,0,0,.681,1.63,1.263,1.263,0,0,0,1.646-.67c1.256-3,2.276-6.18,3.262-9.25,0.243-.75.485-1.51,0.729-2.26a1.249,1.249,0,0,0-.811-1.57A1.3,1.3,0,0,0,433.336,1522.52Zm-17.719-2.74a1.254,1.254,0,0,0-1.249,1.09,81.242,81.242,0,0,1-5.185,20.22,1.246,1.246,0,0,0,.679,1.63,1.273,1.273,0,0,0,1.647-.67,83.945,83.945,0,0,0,5.36-20.87,1.244,1.244,0,0,0-1.1-1.39A0.823,0.823,0,0,0,415.617,1519.78Zm-16.229,2.3a1.254,1.254,0,0,0-1.259,1.23c-0.024,1.91.061,3.86,0.15,5.92,0.237,5.45.482,11.09-1.439,15.72a1.248,1.248,0,0,0,.687,1.63,1.272,1.272,0,0,0,1.644-.68c2.132-5.14,1.874-11.06,1.625-16.78-0.088-2.02-.171-3.94-0.148-5.78a1.257,1.257,0,0,0-1.244-1.26h-0.016Zm-18.15,6.98a1.353,1.353,0,0,0-.517.11,1.245,1.245,0,0,0-.631,1.65c1.929,4.25,1.594,9.23,1.27,14.05a60.243,60.243,0,0,0-.192,7.63,1.259,1.259,0,0,0,2.514-.15,57.543,57.543,0,0,1,.191-7.31c0.345-5.13.7-10.43-1.486-15.24A1.268,1.268,0,0,0,381.238,1529.06Zm-14.143,6.48a1.178,1.178,0,0,0-.542.13,1.237,1.237,0,0,0-.594,1.66c1.866,3.86,1.649,8.61,1.439,13.2-0.088,1.95-.18,3.96-0.1,5.84a1.261,1.261,0,0,0,1.31,1.19,1.241,1.241,0,0,0,1.208-1.29c-0.073-1.78.013-3.65,0.1-5.63,0.224-4.89.455-9.96-1.683-14.39A1.257,1.257,0,0,0,367.1,1535.54Zm-15.758,4.76a1.327,1.327,0,0,0-.547.12,1.248,1.248,0,0,0-.587,1.67c1.357,2.78,1.244,7.72-.317,13.92a1.241,1.241,0,0,0,.917,1.51,1.26,1.26,0,0,0,1.528-.91c1.2-4.78,2.207-11.37.141-15.61A1.266,1.266,0,0,0,351.337,1540.3Zm-14.284.41h-0.048a1.257,1.257,0,0,0-1.212,1.29c0.152,4-1.166,7.43-2.774,11.18a1.247,1.247,0,0,0,.669,1.64,1.267,1.267,0,0,0,1.652-.66c1.726-4.04,3.142-7.74,2.971-12.25A1.255,1.255,0,0,0,337.053,1540.71Zm-6.618-11.7a1.273,1.273,0,0,0-1.065.58c-0.929,1.45-1.921,3.17-2.97,5-2.893,5.03-6.494,11.28-10.4,14.28a1.227,1.227,0,0,0-.226,1.74,1.267,1.267,0,0,0,1.768.23c4.306-3.3,7.888-9.53,11.049-15.02,1.035-1.8,2.012-3.49,2.908-4.89a1.239,1.239,0,0,0-.388-1.72A1.286,1.286,0,0,0,330.435,1529.01Zm-19.406,25.75a1.11,1.11,0,0,0-.357.06,1.336,1.336,0,0,0-.432.11,1.25,1.25,0,0,0-.592,1.67c3.535,7.31,8.2,12.41,14.674,16.03,8.941,5.01,12.56,6.16,21.23.7l2.524-1.59-2.914-.68c-0.976-.22-2.02-0.45-3.114-0.7-10.18-2.26-25.566-5.67-29.875-14.87A1.259,1.259,0,0,0,311.029,1554.76Zm24.773,19.67c-2.929,0-5.762-1.46-10.24-3.97a30.894,30.894,0,0,1-6.929-5.19c6.91,3.99,16,6,22.854,7.52A12.278,12.278,0,0,1,335.8,1574.43Zm54.57-8.82a43.982,43.982,0,0,0-4.832.26c-11.439,1.25-27.36,7.41-38.7,12.35a1.248,1.248,0,1,0,1.015,2.28c11.181-4.87,26.843-10.93,37.964-12.15,20.157-2.21,37.368,10.74,48.257,22,1.06,1.09,2.134,2.18,3.21,3.28a134.754,134.754,0,0,1,12.293,13.68,1.262,1.262,0,0,0,1.761.27,1.236,1.236,0,0,0,.268-1.74,135.282,135.282,0,0,0-12.517-13.95c-1.071-1.09-2.14-2.18-3.195-3.27C425.481,1577.86,409.434,1565.61,390.372,1565.61Zm-1.736,37.71a1.267,1.267,0,0,0-1.141.72,1.246,1.246,0,0,0,.605,1.66c18,8.36,42.506,9.2,62.42,2.14a1.237,1.237,0,0,0,.761-1.59,1.268,1.268,0,0,0-1.611-.76c-19.32,6.86-43.067,6.05-60.5-2.05A1.277,1.277,0,0,0,388.636,1603.32Zm-38.1-24.99a18.038,18.038,0,0,0-3.871.4,1.246,1.246,0,1,0,.551,2.43c7.027-1.56,16.887,2.39,23.771,6.61,5.165,3.16,15.249,11.72,16.106,16.8a1.259,1.259,0,0,0,2.485-.41c-1.139-6.76-13.054-15.94-17.266-18.51C366.167,1581.88,357.7,1578.33,350.541,1578.33Zm24.915-10.09a1.262,1.262,0,0,0-1.063.57c-1.21,1.88-2.466,4.32-3.681,6.69a49.27,49.27,0,0,1-4.656,7.98,1.231,1.231,0,0,0,.155,1.75,1.259,1.259,0,0,0,1.775-.15c1.608-1.9,3.242-5.08,4.972-8.45,1.187-2.31,2.415-4.7,3.558-6.47a1.246,1.246,0,0,0-.383-1.73A1.281,1.281,0,0,0,375.456,1568.24Zm19.732-1.45a1.282,1.282,0,0,0-1.045.55,114.593,114.593,0,0,0-6.039,10.31,86.929,86.929,0,0,1-7.906,12.83,1.237,1.237,0,0,0,.219,1.75,1.264,1.264,0,0,0,1.768-.21,89.131,89.131,0,0,0,8.142-13.19,111.271,111.271,0,0,1,5.9-10.09A1.256,1.256,0,0,0,395.188,1566.79Zm20.841,6.98a1.26,1.26,0,0,0-1.221.95c-1.874,7.37-6.611,13.73-10.529,18.44-1.526,1.84-2.966,3.86-4.359,5.82a70.642,70.642,0,0,1-5.172,6.72,1.237,1.237,0,0,0,.093,1.76,1.271,1.271,0,0,0,1.779-.09,76.525,76.525,0,0,0,5.361-6.95c1.365-1.92,2.777-3.91,4.245-5.68,4.084-4.91,9.029-11.56,11.026-19.41a1.254,1.254,0,0,0-.914-1.52A1.656,1.656,0,0,0,416.029,1573.77Zm4.041,14.42a7.584,7.584,0,0,0-2.557.44,7.275,7.275,0,0,0-4.463,4.3,9,9,0,0,0-.036,6.97,7.2,7.2,0,0,0,3.626,3.46,1.223,1.223,0,0,0,.453.25,5.527,5.527,0,0,0,.532.15,1.069,1.069,0,0,0,.172.04,7.725,7.725,0,0,0,9.1-4.4,7.948,7.948,0,0,0-3.212-10.25A7.151,7.151,0,0,0,420.07,1588.19Zm-1.717,13.18a5.084,5.084,0,0,1-3.057-2.52,6.6,6.6,0,0,1,.119-5.06,4.778,4.778,0,0,1,2.944-2.81,4.826,4.826,0,0,1,4.045.32,5.432,5.432,0,0,1,2.191,7.09A5.168,5.168,0,0,1,418.353,1601.37Zm-16.008-21.25,0.363-.03a2.028,2.028,0,0,1-1.036-.08,1.9,1.9,0,0,1-1.113-.97,2.123,2.123,0,0,1,.591-2.5,2.1,2.1,0,0,1,3.215.64A2.063,2.063,0,0,1,402.345,1580.12Zm-5.339,7.27a2.052,2.052,0,0,1-1.358-1.56,2.191,2.191,0,0,1,.064-1.13,2.273,2.273,0,0,1,4.513.52,2.538,2.538,0,0,1-.847,1.71A2.509,2.509,0,0,1,397.006,1587.39Zm-5.994,4.67c-0.567-2.94,4.051-3.81,4.618-.87S391.579,1595,391.012,1592.06Zm-10.118-15.7a1.828,1.828,0,0,1-1.477-1.02,0.167,0.167,0,0,0,0-.22,1.486,1.486,0,0,1-.2-0.71,1.813,1.813,0,0,1,.6-1.28,6.361,6.361,0,0,0-.507.51,0.516,0.516,0,0,1,.02-0.08,2.034,2.034,0,0,1,3.446-.65,2.038,2.038,0,0,1,.385,1.99A2.164,2.164,0,0,1,380.894,1576.36Zm-1.477-1.02c-0.258.26-1.57-.09-0.108-1.7a2.124,2.124,0,0,0-.091.77A1.871,1.871,0,0,0,379.417,1575.34Zm-3.951,7.77a2.474,2.474,0,0,1-1.246-1.9v-0.12c0-2.01,3.545-2.62,4.287-.75,0.016,0.04.193,0.08,0.208,0.12a2.212,2.212,0,0,1,.176,1.62,2.3,2.3,0,0,1-1.718,1.36A2.482,2.482,0,0,1,375.466,1583.11Zm41.855,13.13a2.247,2.247,0,0,1,1.791-2.6A2.23,2.23,0,1,1,417.321,1596.24Zm6.471-66.36c0.013-.11.024-0.21,0.036-0.31a1.168,1.168,0,0,1,1.805-.85,1.147,1.147,0,0,1-.139,1.97l-0.275.15A1,1,0,0,1,423.792,1529.88Zm-4.51-.28c-0.142-.74,1.923-1.13,2.065-0.39A1.053,1.053,0,1,1,419.282,1529.6Zm-10.85,2.36a1.165,1.165,0,0,1,.569-1.83,1.06,1.06,0,0,1,1.214.24,1.013,1.013,0,0,1,.074,1.23,1.767,1.767,0,0,1-.524.52,0.748,0.748,0,0,1-.151.08A1.046,1.046,0,0,1,408.432,1531.96Zm-5.182-.86c-0.142-.73,1.738-1.09,1.879-0.35A0.968,0.968,0,1,1,403.25,1531.1Zm-10.051,5.07a0.692,0.692,0,0,1,.228-0.65,1.087,1.087,0,0,1,.682-0.31c0.163-.01.326-0.02,0.491-0.02a1.372,1.372,0,0,1,.3.05,0.807,0.807,0,0,1,.467,1.4A1.3,1.3,0,0,1,393.2,1536.17Zm-3.71,1.34c-0.284-1.47,1.329-1.77,1.612-.3C391.243,1537.94,389.631,1538.25,389.489,1537.51Zm-3.386,2.09a2.162,2.162,0,0,1-.247-0.05,0.921,0.921,0,0,0-.093-0.04,0.95,0.95,0,0,1-.821-0.76,1,1,0,0,1,1.047-1.16,1.4,1.4,0,0,1,.686.22,1.416,1.416,0,0,1,.24.2c0.369,0.42.073,0.11-.006,0.04a0.823,0.823,0,0,1,.079,1.28,0.953,0.953,0,0,1-.574.27A0.814,0.814,0,0,1,386.1,1539.6Zm-9.648,2.66c-0.142-.74,1.657-1.08,1.8-0.34A0.934,0.934,0,1,1,376.455,1542.26Zm-2.9,2.66a1.133,1.133,0,0,1,1.343-1.3,0.818,0.818,0,0,1,.3,1.54,0.343,0.343,0,0,1-.1.04A0.855,0.855,0,0,1,373.557,1544.92Zm-8.574,1.53c0.042,0,.084-0.01.127-0.01a0.866,0.866,0,0,1,.328,1.7l-0.122.03C364.214,1548.49,363.842,1546.56,364.983,1546.45Zm-6.507,1.49c-0.142-.74,1.831-1.11,1.972-0.37A1.01,1.01,0,1,1,358.476,1547.94Zm-3.8.72c-0.142-.74,1.505-1.05,1.647-0.32C356.61,1549.81,354.962,1550.13,354.679,1548.66Zm-7.634.67c0.035-.11.071-0.21,0.106-0.32a0.87,0.87,0,0,1,1.289-.42,0.849,0.849,0,0,1,.08,1.34c-0.087.07-.176,0.14-0.265,0.22A0.762,0.762,0,0,1,347.045,1549.33Zm-4.548.1c-0.142-.73,1.54-1.05,1.682-0.31C344.462,1550.59,342.781,1550.9,342.5,1549.43Zm-3.478-.86c-0.142-.74,1.494-1.05,1.636-0.31C340.938,1549.73,339.3,1550.04,339.019,1548.57Zm-7.81-1.8c0.042-.11.083-0.21,0.124-0.32a0.79,0.79,0,0,1,1.173-.38,0.774,0.774,0,0,1,.074,1.22c-0.085.07-.17,0.15-0.254,0.23A0.7,0.7,0,0,1,331.209,1546.77Zm-3.861-1.33c-0.142-.73,1.563-1.06,1.7-0.32C329.336,1546.59,327.631,1546.91,327.348,1545.44Zm126.662,7.04a10.124,10.124,0,0,0-3.159.5c-3.431,1.15-5.517,4.18-5.724,8.32-0.144,2.89,2.536,5.23,5.1,5.75a5.211,5.211,0,0,0,6.135-3.63,1.242,1.242,0,0,0-.748-1.6,1.259,1.259,0,0,0-1.617.74c-0.77,2.08-2.2,2.26-3.268,2.04-1.712-.34-3.154-1.82-3.087-3.17,0.158-3.16,1.546-5.26,4.016-6.09,3.164-1.06,7.367.27,9.775,3.09,2.46,2.87,2.614,6.67.433,10.69-3.657,6.74-13.419,3.7-20.548,1.48-0.7-.22-1.379-0.43-2.022-0.62a87.449,87.449,0,0,1-10.144-4.06c-8.064-3.6-17.2-7.68-26.8-6.09a1.248,1.248,0,1,0,.418,2.46c8.839-1.47,17.23,2.28,25.344,5.9a88.77,88.77,0,0,0,10.451,4.17c0.634,0.2,1.3.4,2,.62,7.518,2.34,18.878,5.87,23.524-2.68,2.664-4.91,2.4-9.82-.729-13.48A12.611,12.611,0,0,0,454.01,1552.48Zm-19.594,15.54a1.269,1.269,0,0,0-1.154.74,1.251,1.251,0,0,0,.647,1.65c5.759,2.5,15.2,7.59,13.728,13.6a3.3,3.3,0,0,1-2.768,2.45,4.025,4.025,0,0,1-3.843-1.12c-0.514-.71-0.43-1.67.25-2.83a1.248,1.248,0,0,0-.461-1.71,1.269,1.269,0,0,0-1.721.46c-1.6,2.73-.761,4.64-0.12,5.53a6.475,6.475,0,0,0,6.372,2.12,5.791,5.791,0,0,0,4.739-4.31c1.434-5.85-3.81-11.54-15.163-16.48A1.29,1.29,0,0,0,434.416,1568.02Zm-1.478-16.85a6.268,6.268,0,0,0-1.3.13,6.1,6.1,0,0,0-4.763,4.91,4.265,4.265,0,0,0,.8,4.18c1.608,1.66,4.42,1.19,4.736,1.13a1.248,1.248,0,1,0-.473-2.45,3.287,3.287,0,0,1-2.448-.41,2.2,2.2,0,0,1-.158-1.88,3.616,3.616,0,0,1,2.8-3.04,5.926,5.926,0,0,1,5.562,2.46,5.264,5.264,0,0,1,.04,6.02,6.26,6.26,0,0,1-4,3.04c-5.484,1.43-13.084-2.93-13.159-2.97a1.262,1.262,0,0,0-1.724.45,1.234,1.234,0,0,0,.449,1.7c0.348,0.2,8.593,4.92,15.076,3.23a8.79,8.79,0,0,0,5.534-4.2,7.707,7.707,0,0,0-.17-8.72A8.645,8.645,0,0,0,432.938,1551.17Zm-154.884,9.82a1.254,1.254,0,0,0-1.256,1.17c-0.56,9.18,4.456,18.65,8.487,26.27,9.822,18.54,24.624,25.31,41.764,33.15,2.781,1.28,5.657,2.59,8.556,3.98,26.642,12.77,44.256,26.99,55.434,44.77a1.275,1.275,0,0,0,1.735.4,1.242,1.242,0,0,0,.4-1.72c-11.44-18.19-29.385-32.71-56.475-45.69-2.919-1.4-5.8-2.72-8.6-4-16.723-7.65-31.165-14.26-40.59-32.05-3.885-7.34-8.721-16.47-8.2-24.96a1.248,1.248,0,0,0-1.181-1.32h-0.077Zm23.305-3.33a1.308,1.308,0,0,0-.336.05,1.242,1.242,0,0,0-.879,1.53c2.888,10.34,12.31,18.64,28.006,24.7,4.2,1.62,8.383,3.04,12.423,4.4,15.176,5.14,29.51,9.99,40.207,24.46,11.283,15.27,10.868,29.46,10.388,45.89-0.1,3.27-.194,6.65-0.207,10.15a1.249,1.249,0,0,0,1.254,1.25h0.005a1.256,1.256,0,0,0,1.26-1.24c0.013-3.47.111-6.83,0.207-10.09,0.493-16.89.919-31.47-10.874-47.43-11.164-15.1-25.863-20.08-41.425-25.35-4.016-1.36-8.168-2.76-12.323-4.36-14.915-5.76-23.828-13.51-26.492-23.04A1.254,1.254,0,0,0,301.359,1557.66Zm-16.454,3.11a1.26,1.26,0,0,0-1.229.98c-1.885,8.51,8.438,25.2,12.412,30.32,6.924,8.91,17.217,14.97,24.633,18.48,4.577,2.17,9.251,4.07,13.77,5.91,3.195,1.3,6.5,2.64,9.747,4.07,21.047,9.26,34.815,20.09,40.922,32.22a1.277,1.277,0,0,0,1.689.56,1.249,1.249,0,0,0,.565-1.68c-6.374-12.65-20.557-23.88-42.153-33.38-3.28-1.44-6.6-2.79-9.812-4.1-4.487-1.82-9.127-3.71-13.641-5.85-7.168-3.39-17.1-9.23-23.723-17.75-5.084-6.55-13.426-21.6-11.948-28.27a1.244,1.244,0,0,0-.961-1.48A1.264,1.264,0,0,0,284.9,1560.77Zm9.244-1.93a1.149,1.149,0,0,0-.362.06,1.24,1.24,0,0,0-.845,1.55c3.94,13.02,15.15,21.72,20.526,24.49a147.951,147.951,0,0,0,19.5,7.93c9.63,3.39,19.588,6.89,29.5,14.06,6.258,4.53,12.578,9.86,16.419,18.06a74.529,74.529,0,0,1,6.28,27.04,1.26,1.26,0,0,0,2.518-.09,75.972,75.972,0,0,0-6.511-27.99c-4.082-8.73-10.688-14.3-17.219-19.03-10.207-7.39-20.341-10.95-30.142-14.4a145.613,145.613,0,0,1-19.182-7.79c-5.05-2.6-15.58-10.77-19.278-23A1.261,1.261,0,0,0,294.149,1558.84Zm85.526,65.35a1.291,1.291,0,0,0-.572.13q-1.08.555-2.17,1.11c-2.836,1.45-5.768,2.96-8.689,4.15a1.244,1.244,0,0,0-.682,1.63,1.266,1.266,0,0,0,1.645.68c3.021-1.24,6-2.77,8.884-4.24q1.085-.555,2.158-1.11a1.232,1.232,0,0,0,.549-1.67A1.265,1.265,0,0,0,379.675,1624.19Zm-10.566-14.34a1.241,1.241,0,0,0-.773.26,82.807,82.807,0,0,1-18.114,10.67,1.242,1.242,0,0,0-.684,1.63,1.272,1.272,0,0,0,1.644.68,85.875,85.875,0,0,0,18.7-11.01A1.246,1.246,0,0,0,369.109,1609.85Zm-13.122-9.73a1.289,1.289,0,0,0-.88.35c-1.381,1.34-2.711,2.77-4.119,4.29-3.728,4.02-7.583,8.18-12.252,10.11a1.243,1.243,0,0,0-.676,1.63,1.257,1.257,0,0,0,1.648.67c5.179-2.14,9.225-6.5,13.136-10.72,1.384-1.5,2.691-2.91,4.023-4.19a1.234,1.234,0,0,0,.022-1.76A1.268,1.268,0,0,0,355.987,1600.12Zm-17.824-7.76a1.253,1.253,0,0,0-1.178.8c-1.667,4.35-5.465,7.64-9.138,10.82a60.7,60.7,0,0,0-5.592,5.27,1.239,1.239,0,0,0,.11,1.76,1.28,1.28,0,0,0,1.778-.11,57.479,57.479,0,0,1,5.363-5.04c3.906-3.39,7.944-6.88,9.835-11.81a1.242,1.242,0,0,0-.731-1.61A1.168,1.168,0,0,0,338.163,1592.36Zm-14.631-5.32a1.259,1.259,0,0,0-1.187.83c-1.443,4.04-4.988,7.25-8.417,10.35-1.452,1.31-2.953,2.67-4.243,4.05a1.234,1.234,0,0,0,.072,1.76,1.262,1.262,0,0,0,1.78-.07c1.217-1.31,2.613-2.57,4.09-3.9,3.659-3.31,7.441-6.73,9.093-11.36A1.25,1.25,0,0,0,323.532,1587.04ZM309,1579.38a1.259,1.259,0,0,0-1.189.83c-1.03,2.92-4.644,6.34-10.176,9.63a1.238,1.238,0,0,0-.431,1.71,1.261,1.261,0,0,0,1.729.42c4.269-2.54,9.688-6.5,11.256-10.94a1.232,1.232,0,0,0-.774-1.58A1.206,1.206,0,0,0,309,1579.38Zm-10.4-9.71a1.243,1.243,0,0,0-.924.4c-2.745,2.93-6.13,4.44-9.95,5.97a1.235,1.235,0,0,0-.694,1.62,1.271,1.271,0,0,0,1.64.69c4.1-1.65,7.753-3.28,10.852-6.59a1.237,1.237,0,0,0-.068-1.76A1.271,1.271,0,0,0,298.6,1569.67Zm3.68-12.9a1.294,1.294,0,0,0-.275.03c-1.693.37-3.626,0.9-5.673,1.45-5.638,1.53-12.654,3.44-17.556,2.82a1.263,1.263,0,0,0-1.408,1.08,1.242,1.242,0,0,0,1.09,1.39c5.4,0.69,12.381-1.21,18.54-2.88,2.017-.55,3.922-1.07,5.556-1.43A1.244,1.244,0,0,0,302.277,1556.77Zm-32.331,4.49a1.261,1.261,0,0,0-1.188.83c-2.726,7.65-3.069,14.52-1.08,21.61,2.746,9.79,4.478,13.15,14.513,15.35l2.922,0.64-1.579-2.52c-0.528-.84-1.1-1.73-1.7-2.67-5.586-8.72-14.027-21.9-10.5-31.42a1.235,1.235,0,0,0-.576-1.52,1.156,1.156,0,0,0-.395-0.23A1.225,1.225,0,0,0,269.946,1561.26Zm9.753,34.57c-6.267-1.96-7.4-4.98-9.594-12.8a30.491,30.491,0,0,1-1.191-8.51C270.953,1582.17,275.941,1589.96,279.7,1595.83Zm-0.551,7.49a1.27,1.27,0,0,0-1.175.8,1.24,1.24,0,0,0,.718,1.61c11.389,4.38,26.8,11.05,35.53,17.97,15.83,12.55,18.746,33.75,18.4,49.33-0.033,1.51-.053,3.03-0.073,4.55a132.327,132.327,0,0,1-1.088,18.29,1.26,1.26,0,0,0,2.491.38,134.185,134.185,0,0,0,1.116-18.64c0.02-1.51.04-3.02,0.073-4.53,0.353-16.14-2.717-38.14-19.349-51.32-8.983-7.12-24.64-13.91-36.193-18.35A1.217,1.217,0,0,0,279.148,1603.32Zm11.187,46.72a1.271,1.271,0,0,0-.428.07,1.249,1.249,0,0,0-.757,1.6c6.755,18.51,23.478,36.26,42.606,45.2a1.274,1.274,0,0,0,1.677-.6,1.244,1.244,0,0,0-.6-1.66c-18.556-8.67-34.773-25.86-41.313-43.79A1.266,1.266,0,0,0,290.335,1650.04Zm-11.886-46.58a1.246,1.246,0,0,0-.676,2.3c6.086,3.81,10.236,13.5,12.091,21.3,1.393,5.85,2.407,18.96-.622,23.15a1.24,1.24,0,0,0,.293,1.74,1.259,1.259,0,0,0,1.757-.29c4.027-5.57,2.16-20.4,1.024-25.17-1.968-8.28-6.468-18.62-13.194-22.84A1.27,1.27,0,0,0,278.449,1603.46Zm27.635,12.55a1.275,1.275,0,0,0-.273.03c-2.193.48-4.827,1.33-7.375,2.15a50.076,50.076,0,0,1-9,2.38,1.25,1.25,0,1,0,.22,2.49c2.5-.22,5.927-1.33,9.561-2.5,2.489-.8,5.064-1.63,7.136-2.09A1.243,1.243,0,0,0,306.084,1616.01Zm14.983,12.79a0.978,0.978,0,0,0-.24.02,116.445,116.445,0,0,0-11.631,3.06,88.415,88.415,0,0,1-14.764,3.54,1.25,1.25,0,1,0,.31,2.48,91.752,91.752,0,0,0,15.187-3.63,110.934,110.934,0,0,1,11.375-3A1.245,1.245,0,0,0,321.067,1628.8Zm9.749,19.52a1.252,1.252,0,0,0-.645.17c-6.594,3.91-14.485,5.09-20.624,5.68-2.393.23-4.86,0.65-7.245,1.06a72.294,72.294,0,0,1-8.455,1.14,1.247,1.247,0,1,0,.131,2.49,77.929,77.929,0,0,0,8.755-1.17c2.34-.4,4.759-0.82,7.058-1.04,6.4-.62,14.649-1.86,21.673-6.02a1.239,1.239,0,0,0,.434-1.71A1.255,1.255,0,0,0,330.816,1648.32Zm-11.9,11.17a7.231,7.231,0,0,0-3,.65,9.139,9.139,0,0,0-5.009,4.91,7.086,7.086,0,0,0,.092,4.98,1.175,1.175,0,0,0,.142.49c0.087,0.17.176,0.33,0.269,0.48a0.931,0.931,0,0,0,.094.15,7.752,7.752,0,0,0,9.578,3.26,7.979,7.979,0,0,0,5.051-9.5,7.255,7.255,0,0,0-3.986-4.69A7.711,7.711,0,0,0,318.911,1659.49Zm-5.28,10.33a5.02,5.02,0,0,1-.357-3.92,6.658,6.658,0,0,1,3.7-3.49,4.811,4.811,0,0,1,4.093.07,4.708,4.708,0,0,1,2.627,3.05,5.454,5.454,0,0,1-3.517,6.55A5.179,5.179,0,0,1,313.631,1669.82Zm3.864-26.23c0.095,0.08.189,0.16,0.283,0.23a1.963,1.963,0,0,1-.677-0.78,1.852,1.852,0,0,1-.094-1.46,2.152,2.152,0,0,1,2.2-1.35,2.065,2.065,0,0,1,1.817,2.7A2.1,2.1,0,0,1,317.5,1643.59Zm-8.97,1.41a2.046,2.046,0,0,1,.158-2.06,2.279,2.279,0,0,1,.85-0.75,2.312,2.312,0,0,1,2.626-.06,2.26,2.26,0,0,1,.2,3.58,2.532,2.532,0,0,1-1.823.62A2.483,2.483,0,0,1,308.525,1645Zm-7.785-.58c1.7-2.48,5.588.13,3.888,2.61S299.04,1646.89,300.74,1644.42Zm4.274-18.49a1.815,1.815,0,0,1-.311-1.76,0.179,0.179,0,0,0,.159-0.16,1.536,1.536,0,0,1,.359-0.64,1.815,1.815,0,0,1,1.341-.48,5.791,5.791,0,0,0-.723,0c0.024-.01.049-0.03,0.073-0.04a2.047,2.047,0,0,1,2.016.15,2.015,2.015,0,0,1,.885,1.8,2.078,2.078,0,0,1-1.152,1.68A2.187,2.187,0,0,1,305.014,1625.93Zm-0.311-1.76c-0.37,0-1.049-1.16,1.136-1.28a2.359,2.359,0,0,0-.618.48A1.878,1.878,0,0,0,304.7,1624.17Zm-8.12,2.96a2.172,2.172,0,0,1,.7-1.99,0.7,0.7,0,0,1,.087-0.08c1.433-1.44,4.153.39,3.336,2.24-0.016.04-.033,0.07-0.05,0.11a2.193,2.193,0,0,1-1.091,1.21,2.154,2.154,0,0,1-2.1-.15A2.108,2.108,0,0,1,296.583,1627.13Zm19.983,38.35a2.29,2.29,0,0,1,3.13-.6,2.242,2.242,0,0,1,.6,3.1,2.3,2.3,0,0,1-3.13.59A2.23,2.23,0,0,1,316.566,1665.48Zm52-42.41c0.081-.06.162-0.12,0.243-0.19a1.152,1.152,0,1,1,.377,1.96l-0.3-.09A0.986,0.986,0,0,1,368.563,1623.07Zm-3.2-3.04a1.049,1.049,0,0,1,1.739,1.17A1.049,1.049,0,0,1,365.361,1620.03Zm-8.819-7.02a1.183,1.183,0,0,1,1.71-.9,1.038,1.038,0,0,1,.687,1.02,1.027,1.027,0,0,1-.822.92,1.689,1.689,0,0,1-.742,0,0.492,0.492,0,0,1-.165-0.05A1.038,1.038,0,0,1,356.542,1613.01Zm-3.594-3.13c0.424-.62,2.008.44,1.583,1.06A0.966,0.966,0,1,1,352.948,1609.88Zm-10.518-3.76a0.7,0.7,0,0,1,.63-0.3,1.058,1.058,0,0,1,.7.25c0.124,0.11.248,0.22,0.36,0.33a2.28,2.28,0,0,1,.183.25,0.813,0.813,0,0,1-.672,1.32A1.28,1.28,0,0,1,342.43,1606.12Zm-3.792-1.34c0.85-1.24,2.209-.33,1.36.91C339.571,1606.31,338.214,1605.4,338.638,1604.78Zm-3.677-1.2c-0.045-.07-0.091-0.14-0.137-0.21-0.017-.05-0.022-0.06-0.033-0.1a0.926,0.926,0,0,1-.04-1.11,1.012,1.012,0,0,1,1.566-.08,1.314,1.314,0,0,1,.334.63,1.487,1.487,0,0,1,.025.31c-0.037.55-.023,0.13-0.034,0.03a0.824,0.824,0,0,1-.855.95,0.882,0.882,0,0,1-.6-0.21A1.076,1.076,0,0,1,334.961,1603.58Zm-8.93-4.57c0.425-.62,1.94.4,1.514,1.02C326.7,1601.27,325.182,1600.25,326.031,1599.01Zm-3.408-1.24a1.152,1.152,0,0,1,1.882.01,0.824,0.824,0,0,1-.89,1.3,0.361,0.361,0,0,1-.1-0.04A0.841,0.841,0,0,1,322.623,1597.77Zm-7.487-4.13a0.689,0.689,0,0,0,.1.08,0.868,0.868,0,0,1-.982,1.43l-0.111-.06C313.135,1594.54,314.253,1592.92,315.136,1593.64Zm-5.877-3.19c0.425-.62,2.086.5,1.662,1.12A1.009,1.009,0,1,1,309.259,1590.45Zm-3.2-2.15a0.836,0.836,0,0,1,1.387.93A0.836,0.836,0,0,1,306.062,1588.3Zm-5.669-5.17c0.1-.06.205-0.11,0.308-0.16a0.85,0.85,0,1,1,.309,1.61l-0.343-.03A0.751,0.751,0,0,1,300.393,1583.13Zm-3.5-2.81a0.856,0.856,0,0,1,1.417.96A0.856,0.856,0,0,1,296.892,1580.32Zm-1.841-3.04a0.829,0.829,0,0,1,1.378.92A0.829,0.829,0,0,1,295.051,1577.28Zm-4.023-7.05c0.106-.04.209-0.09,0.315-0.14a0.775,0.775,0,1,1,.282,1.47c-0.115-.01-0.229-0.01-0.344-0.02A0.692,0.692,0,0,1,291.028,1570.23Zm-2-3.33a0.867,0.867,0,0,1,1.437.97A0.867,0.867,0,0,1,289.033,1566.9Zm42.236,62.12a1.271,1.271,0,0,0-1.027.53,1.24,1.24,0,0,0,.295,1.74c7.3,5.14,10.558,13.66,13.707,21.9a88.129,88.129,0,0,0,4.407,10.27q0.471,0.87.974,1.83c3.644,6.91,9.15,17.36,18.549,14.56,5.391-1.6,8.714-5.26,9.117-10.04,0.4-4.72-2.17-9.54-6.105-11.46-3.248-1.59-6.888-.91-9.99,1.87-2.165,1.94-1.945,5.48-.5,7.64a5.232,5.232,0,0,0,6.932,1.72,1.237,1.237,0,0,0,.613-1.65,1.26,1.26,0,0,0-1.672-.61c-2.029.93-3.171,0.06-3.772-.84-0.964-1.44-.922-3.5.09-4.41,2.363-2.11,4.847-2.63,7.183-1.49,3,1.47,5.02,5.34,4.71,9.02-0.317,3.76-2.921,6.55-7.333,7.87-7.4,2.2-12.132-6.78-15.588-13.33q-0.512-.975-0.986-1.86a85.862,85.862,0,0,1-4.273-9.97c-3.129-8.19-6.675-17.47-14.6-23.05A1.242,1.242,0,0,0,331.269,1629.02Zm16.662,28.09a1.263,1.263,0,0,0-1.173,1.7c5.323,13.51,2.275,17.85-.016,19.23a3.349,3.349,0,0,1-3.707-.21,3.937,3.937,0,0,1-1.916-3.48c0.147-.86.887-1.48,2.2-1.83a1.242,1.242,0,0,0,.891-1.52,1.26,1.26,0,0,0-1.543-.89c-3.083.82-3.851,2.75-4.034,3.83a6.358,6.358,0,0,0,2.989,5.96,5.861,5.861,0,0,0,6.43.27c5.193-3.13,5.556-10.83,1.052-22.26A1.255,1.255,0,0,0,347.931,1657.11Zm7.672-14.37a7.047,7.047,0,0,0-3.674,1.11,4.308,4.308,0,0,0-2.427,3.52c-0.048,2.3,2.279,3.93,2.545,4.11a1.274,1.274,0,0,0,1.75-.33,1.249,1.249,0,0,0-.334-1.74,3.2,3.2,0,0,1-1.442-1.99,2.229,2.229,0,0,1,1.237-1.45,3.678,3.678,0,0,1,4.148-.19,5.8,5.8,0,0,1,2.177,5.63,5.333,5.333,0,0,1-4.274,4.29,6.352,6.352,0,0,1-4.994-.64c-4.888-2.82-7.165-11.23-7.188-11.32a1.269,1.269,0,0,0-1.537-.89,1.249,1.249,0,0,0-.9,1.52c0.1,0.39,2.558,9.49,8.352,12.84a8.877,8.877,0,0,0,6.914.9,7.822,7.822,0,0,0,6.112-6.29,8.262,8.262,0,0,0-3.261-8.11A5.741,5.741,0,0,0,355.6,1642.74Zm-113.21-100.02a1.271,1.271,0,0,0-.835.32c-6.956,6.1-10.179,16.31-12.768,24.51-6.307,19.99-.679,35.13,5.838,52.67,1.058,2.85,2.152,5.79,3.209,8.8,9.716,27.67,12.007,50.06,7.21,70.45a1.258,1.258,0,0,0,2.453.56c4.911-20.87,2.6-43.69-7.283-71.83-1.065-3.03-2.162-5.98-3.224-8.84-6.358-17.11-11.85-31.89-5.8-51.07,2.5-7.91,5.6-17.75,12.034-23.39a1.237,1.237,0,0,0,.108-1.76A1.293,1.293,0,0,0,242.393,1542.72Zm18.855,13.96a1.27,1.27,0,0,0-1.1.63c-5.344,9.33-4.619,21.8,2.154,37.06,1.814,4.09,3.758,8.02,5.637,11.81,7.061,14.25,13.73,27.72,10.953,45.43-2.929,18.69-13.362,28.44-25.443,39.72-2.4,2.24-4.884,4.56-7.4,7.03a1.234,1.234,0,0,0-.007,1.76,1.273,1.273,0,0,0,1.782.01c2.488-2.45,4.959-4.75,7.349-6.99,12.418-11.59,23.143-21.61,26.2-41.14,2.9-18.5-3.94-32.3-11.18-46.92-1.868-3.77-3.8-7.67-5.593-11.71-6.436-14.5-7.2-26.22-2.27-34.83a1.24,1.24,0,0,0-.474-1.7A1.263,1.263,0,0,0,261.248,1556.68Zm-13.857-9.32a1.3,1.3,0,0,0-.678.2c-7.416,4.7-12.042,23.73-12.888,30.13-1.474,11.15,1.477,22.63,4.213,30.3,1.69,4.75,3.639,9.37,5.523,13.84,1.328,3.15,2.7,6.4,3.974,9.68,8.269,21.27,10.26,38.57,5.917,51.41a1.258,1.258,0,0,0,2.389.79c4.534-13.4,2.531-31.27-5.954-53.1-1.287-3.31-2.666-6.58-4-9.74-1.871-4.44-3.806-9.03-5.473-13.71-2.643-7.41-5.5-18.49-4.09-29.15,1.082-8.19,5.934-24.66,11.749-28.35a1.235,1.235,0,0,0,.381-1.72A1.271,1.271,0,0,0,247.391,1547.36Zm7.914,5.11a1.26,1.26,0,0,0-1.11.66c-6.521,11.96-4.807,25.95-2.99,31.68a146.21,146.21,0,0,0,8.127,19.26c4.391,9.13,8.932,18.57,10.812,30.58,1.188,7.58,1.853,15.77-1.294,24.26a74.97,74.97,0,0,1-14.878,23.51,1.235,1.235,0,0,0,.064,1.76,1.271,1.271,0,0,0,1.78-.06,76.631,76.631,0,0,0,15.4-24.35c3.344-9.02,2.659-17.59,1.419-25.5-1.937-12.37-6.558-21.98-11.027-31.27a144.215,144.215,0,0,1-8-18.94c-1.707-5.38-3.318-18.52,2.8-29.75a1.241,1.241,0,0,0-.511-1.69A1.282,1.282,0,0,0,255.305,1552.47Zm2.254,102.14a1.263,1.263,0,0,0-1.164.77,1.247,1.247,0,0,0,.681,1.63c3.028,1.24,6.237,2.25,9.341,3.23q1.149,0.36,2.284.72a1.269,1.269,0,0,0,1.587-.8,1.242,1.242,0,0,0-.811-1.57c-0.761-.25-1.528-0.49-2.3-0.73-3.052-.96-6.208-1.95-9.137-3.15A1.185,1.185,0,0,0,257.559,1654.61Zm-6.454-18.84a1.26,1.26,0,0,0-1.163.77,1.238,1.238,0,0,0,.678,1.63,86.213,86.213,0,0,0,21.09,5.31,1.267,1.267,0,0,0,1.405-1.09,1.254,1.254,0,0,0-1.1-1.39,83.72,83.72,0,0,1-20.43-5.13A1.19,1.19,0,0,0,251.105,1635.77Zm-3.895-12.21a1.26,1.26,0,0,0-1.166.77,1.244,1.244,0,0,0,.687,1.63c5.192,2.11,11.169,1.85,16.948,1.61,2.047-.09,3.979-0.17,5.841-0.15a1.269,1.269,0,0,0,1.276-1.23,1.251,1.251,0,0,0-1.244-1.26c-1.932-.02-3.9.06-5.981,0.15-5.509.23-11.2,0.47-15.884-1.43A1.331,1.331,0,0,0,247.21,1623.56Zm15.269-16.59a1.188,1.188,0,0,0-.516.11c-4.287,1.91-9.323,1.57-14.194,1.25a64.356,64.356,0,0,0-7.715-.19,1.247,1.247,0,1,0,.154,2.49,60.068,60.068,0,0,1,7.394.19c5.178,0.34,10.534.7,15.4-1.47a1.243,1.243,0,0,0,.632-1.65A1.259,1.259,0,0,0,262.479,1606.97Zm-6.547-14a1.3,1.3,0,0,0-.542.12c-3.9,1.85-8.7,1.64-13.34,1.43-1.966-.09-4-0.18-5.9-0.1a1.24,1.24,0,0,0-1.208,1.29,1.27,1.27,0,0,0,1.31,1.2c1.793-.07,3.683.01,5.684,0.1,4.95,0.22,10.066.45,14.539-1.67a1.237,1.237,0,0,0,.594-1.66A1.257,1.257,0,0,0,255.932,1592.97ZM236.2,1577.15a1.247,1.247,0,0,0-.3,2.46c4.834,1.19,11.5,2.18,15.777.14a1.247,1.247,0,0,0,.587-1.67,1.265,1.265,0,0,0-1.682-.58c-2.812,1.34-7.808,1.23-14.072-.31A1.077,1.077,0,0,0,236.2,1577.15Zm2.672-16.75a1.252,1.252,0,0,0-1.16.76,1.238,1.238,0,0,0,.668,1.63c4.075,1.71,7.828,3.11,12.375,2.94a1.246,1.246,0,1,0-.095-2.49c-4.042.15-7.5-1.15-11.3-2.74A1.222,1.222,0,0,0,238.876,1560.4Zm3.857-17.23a1.248,1.248,0,0,0-1,2.01c3.332,4.26,9.623,7.8,15.173,10.93,1.817,1.03,3.533,1.99,4.946,2.88a1.267,1.267,0,0,0,1.739-.38,1.235,1.235,0,0,0-.388-1.72c-1.464-.92-3.206-1.91-5.05-2.95-5.081-2.86-11.4-6.42-14.428-10.29A1.25,1.25,0,0,0,242.733,1543.17Zm-6.271-5.93a1.185,1.185,0,0,0-.543.13c-7.392,3.5-12.541,8.11-16.2,14.52-5.056,8.85-6.227,12.43-.705,21.01l1.608,2.5,0.681-2.89c0.229-.96.463-2,0.708-3.08,2.282-10.07,5.731-25.3,15.031-29.56a1.248,1.248,0,0,0,.68-1.48,1.233,1.233,0,0,0-.119-0.44A1.275,1.275,0,0,0,236.462,1537.24Zm-16.911,31.64c-3.035-5.77-1.679-8.7,2.357-15.76a30.813,30.813,0,0,1,5.243-6.86C223.126,1553.1,221.086,1562.1,219.551,1568.88Zm-6.64,4.55a1.294,1.294,0,0,0-.507.1,1.24,1.24,0,0,0-.645,1.64c4.925,11.07,11.053,26.57,12.285,37.57,2.228,19.95-10.858,36.99-22.229,47.76q-1.655,1.575-3.3,3.17a134.45,134.45,0,0,1-13.841,12.17,1.247,1.247,0,0,0-.269,1.75,1.27,1.27,0,0,0,1.761.26,135.958,135.958,0,0,0,14.107-12.4c1.1-1.05,2.191-2.11,3.289-3.15,11.78-11.16,25.331-28.87,22.99-49.83-1.267-11.32-7.487-27.08-12.483-38.3A1.251,1.251,0,0,0,212.911,1573.43Zm-25.466,40.86a1.259,1.259,0,0,0-1.142.71c-8.452,17.82-9.3,42.07-2.167,61.78a1.271,1.271,0,0,0,1.611.75,1.241,1.241,0,0,0,.761-1.59c-6.923-19.12-6.107-42.62,2.076-59.88a1.232,1.232,0,0,0-.6-1.65A1.273,1.273,0,0,0,187.445,1614.29Zm24.879-41.26a1.319,1.319,0,0,0-.277.03,1.249,1.249,0,0,0-.954,1.49c1.575,6.96-2.413,16.71-6.67,23.52-3.2,5.12-11.847,15.1-16.987,15.94a1.247,1.247,0,1,0,.414,2.46c6.833-1.12,16.109-12.92,18.715-17.09,4.519-7.22,8.727-17.69,6.987-25.38A1.253,1.253,0,0,0,212.324,1573.03Zm-4.378,19.87a1.27,1.27,0,0,0-.966.44,1.242,1.242,0,0,0,.155,1.76c1.919,1.59,5.137,3.21,8.544,4.92,2.335,1.18,4.75,2.39,6.539,3.52a1.268,1.268,0,0,0,1.739-.38,1.237,1.237,0,0,0-.384-1.72c-1.892-1.2-4.363-2.44-6.753-3.64a49.762,49.762,0,0,1-8.065-4.61A1.24,1.24,0,0,0,207.946,1592.9Zm-7.043,14.02a1.277,1.277,0,0,0-.994.48,1.239,1.239,0,0,0,.218,1.75,90.125,90.125,0,0,0,13.329,8.06,112.021,112.021,0,0,1,10.19,5.84,1.264,1.264,0,0,0,1.75-.33,1.25,1.25,0,0,0-.337-1.74,114.865,114.865,0,0,0-10.417-5.97,87.962,87.962,0,0,1-12.965-7.83A1.308,1.308,0,0,0,200.9,1606.92Zm-15.448,14.34a1.253,1.253,0,0,0-.843,2.18,76.4,76.4,0,0,0,7.027,5.3c1.94,1.35,3.947,2.75,5.73,4.2,4.969,4.05,11.69,8.94,19.625,10.91a1.253,1.253,0,0,0,1.529-.9,1.239,1.239,0,0,0-.915-1.51c-7.448-1.86-13.873-6.55-18.639-10.42-1.856-1.51-3.9-2.94-5.879-4.32a72.786,72.786,0,0,1-6.792-5.12A1.286,1.286,0,0,0,185.455,1621.26Zm9.951,17.72a7.7,7.7,0,0,0-3.249.68,7.214,7.214,0,0,0-3.5,3.59,1.288,1.288,0,0,0-.25.45q-0.081.255-.146,0.51a1.009,1.009,0,0,0-.05.2,7.609,7.609,0,0,0,4.448,8.99,8.122,8.122,0,0,0,10.358-3.18,7.146,7.146,0,0,0,.532-6.11,7.274,7.274,0,0,0-4.348-4.41A11.045,11.045,0,0,0,195.406,1638.98Zm-4.729,5.95a5.087,5.087,0,0,1,2.547-3.01,6.772,6.772,0,0,1,5.112.12,4.77,4.77,0,0,1,2.842,2.91,4.672,4.672,0,0,1-.326,4,5.551,5.551,0,0,1-7.167,2.17A5.092,5.092,0,0,1,190.677,1644.93Zm21.469-15.83c0.012,0.12.023,0.24,0.036,0.36a1.969,1.969,0,0,1,1.058-2.13,2.175,2.175,0,0,1,2.525.59,2.052,2.052,0,0,1-.646,3.18A2.081,2.081,0,0,1,212.146,1629.1Zm-7.347-5.28a2.093,2.093,0,0,1,1.58-1.35,2.2,2.2,0,0,1,1.139.07A2.246,2.246,0,0,1,207,1627a2.587,2.587,0,0,1-1.73-.83A2.442,2.442,0,0,1,204.8,1623.82Zm-4.716-5.93c2.97-.56,3.852,4,0.881,4.57S197.113,1618.45,200.083,1617.89Zm15.862-10.02a1.841,1.841,0,0,1,1.037-1.46,0.177,0.177,0,0,0,.221.01,1.528,1.528,0,0,1,.711-0.21,1.878,1.878,0,0,1,1.3.6c-0.185-.2-0.353-0.36-0.514-0.51a0.259,0.259,0,0,0,.081.02,2.051,2.051,0,0,1,1.319,1.52,2,2,0,0,1-.661,1.89,2.1,2.1,0,0,1-2.013.39A2.157,2.157,0,0,1,215.945,1607.87Zm1.037-1.46c-0.265-.25.086-1.55,1.715-0.11a2.5,2.5,0,0,0-.783-0.09A2,2,0,0,0,216.982,1606.41Zm-7.859-3.77a2.355,2.355,0,0,1,1.918-1.09h0.124c2.038,0,2.654,3.37.756,4.1-0.038.02-.076,0.12-0.115,0.14a2.276,2.276,0,0,1-1.64.14,2.235,2.235,0,0,1-1.371-1.65A2.266,2.266,0,0,1,209.123,1602.64Zm-13.269,41.28a2.282,2.282,0,0,1,2.636,1.77A2.252,2.252,0,1,1,195.854,1643.92Zm67.064,6.41,0.309,0.03a1.158,1.158,0,0,1,.864,1.79,1.178,1.178,0,0,1-2-.14c-0.05-.09-0.1-0.18-0.147-0.27A0.988,0.988,0,0,1,262.918,1650.33Zm0.282-4.47c0.742-.14,1.137,1.91.394,2.05A1.047,1.047,0,1,1,263.2,1645.86ZM261.943,1634a1.189,1.189,0,0,1,1.852.57,1.01,1.01,0,0,1-1.484,1.27,1.534,1.534,0,0,1-.521-0.52,0.419,0.419,0,0,1-.084-0.15A1.035,1.035,0,0,1,261.943,1634Zm-0.264-4c0.743-.14,1.1,1.72.359,1.86A0.962,0.962,0,1,1,261.679,1630Zm-5.125-9.95a0.7,0.7,0,0,1,.662.23,1.016,1.016,0,0,1,.314.67,4.9,4.9,0,0,1,.018.49c0,0.03-.072.48-0.046,0.3a0.823,0.823,0,0,1-1.417.46A1.272,1.272,0,0,1,256.554,1620.05Zm-1.349-3.67c1.485-.28,1.792,1.31.307,1.59C254.77,1618.11,254.462,1616.52,255.205,1616.38Zm-2.118-3.35c0.019-.08.036-0.17,0.055-0.25,0.018-.04.028-0.06,0.044-0.09a0.938,0.938,0,0,1,.765-0.81,1,1,0,0,1,1.169,1.04,1.31,1.31,0,0,1-.214.67,1.255,1.255,0,0,1-.206.24c-0.422.37-.107,0.08-0.042,0a0.843,0.843,0,0,1-1.289.07,0.905,0.905,0,0,1-.274-0.56A1.015,1.015,0,0,1,253.087,1613.03Zm-2.679-9.55c0.742-.14,1.086,1.64.344,1.78C249.266,1605.54,248.922,1603.76,250.408,1603.48Zm-1.56-3.99a1.136,1.136,0,0,1,1.319,1.33,0.829,0.829,0,0,1-1.555.29,0.533,0.533,0,0,1-.044-0.09A0.841,0.841,0,0,1,248.848,1599.49Zm-2.679-7.36c0,0.04.008,0.08,0.013,0.12a0.875,0.875,0,0,1-1.717.33c-0.011-.04-0.024-0.08-0.034-0.12C244.11,1591.37,246.062,1591,246.169,1592.13Zm-1.5-6.44c0.743-.14,1.119,1.81.376,1.95A1,1,0,1,1,244.667,1585.69Zm-0.724-3.76c0.742-.14,1.056,1.49.313,1.63C242.772,1583.84,242.457,1582.21,243.943,1581.93Zm-0.685-7.55c0.11,0.03.219,0.07,0.329,0.1a0.854,0.854,0,0,1,.423,1.28,0.873,0.873,0,0,1-1.354.08c-0.072-.09-0.146-0.18-0.22-0.27A0.751,0.751,0,0,1,243.258,1574.38Zm-0.1-4.51c0.743-.14,1.064,1.53.322,1.67C241.993,1571.82,241.671,1570.15,243.156,1569.87Zm0.876-3.44c0.743-.14,1.054,1.48.312,1.62C242.859,1568.33,242.547,1566.71,244.032,1566.43Zm1.818-7.73c0.108,0.04.214,0.09,0.323,0.13a0.775,0.775,0,0,1,.384,1.16,0.791,0.791,0,0,1-1.233.07c-0.077-.08-0.155-0.17-0.231-0.25A0.7,0.7,0,0,1,245.85,1558.7Zm1.341-3.82c0.743-.14,1.068,1.55.325,1.69C246.031,1556.85,245.706,1555.16,247.191,1554.88Zm-15.785,73.19a1.492,1.492,0,0,0-.21.02,1.239,1.239,0,0,0-1.034,1.43c1.487,8.75-2.3,17.06-5.962,25.09a86.991,86.991,0,0,0-4.216,10.34c-0.192.63-.4,1.29-0.621,1.98-2.363,7.43-5.935,18.68,2.71,23.27,4.959,2.64,9.924,2.38,13.624-.72,3.651-3.06,5.281-8.26,3.873-12.38-1.161-3.39-4.225-5.45-8.406-5.66-2.929-.13-5.285,2.51-5.807,5.05a5.14,5.14,0,0,0,3.668,6.07,1.257,1.257,0,0,0,1.616-.74,1.242,1.242,0,0,0-.748-1.6c-2.1-.76-2.283-2.18-2.067-3.24,0.348-1.69,1.86-3.13,3.214-3.05,3.184,0.16,5.308,1.53,6.144,3.97,1.071,3.14-.268,7.29-3.114,9.68-2.909,2.43-6.745,2.58-10.8.43-6.809-3.62-3.74-13.28-1.5-20.34,0.221-.69.434-1.36,0.629-2a85.854,85.854,0,0,1,4.1-10.04c3.639-7.98,7.763-17.02,6.149-26.52A1.255,1.255,0,0,0,231.406,1628.07Zm-8.287,31.52a1.262,1.262,0,0,0-1.155.75c-5.89,13.28-11.14,14.21-13.749,13.58a3.293,3.293,0,0,1-2.475-2.74,3.93,3.93,0,0,1,1.132-3.8c0.723-.51,1.686-0.43,2.864.25a1.269,1.269,0,0,0,1.721-.46,1.236,1.236,0,0,0-.461-1.7c-2.764-1.58-4.686-.75-5.585-0.12a6.338,6.338,0,0,0-2.145,6.31,5.8,5.8,0,0,0,4.355,4.69c5.906,1.42,11.665-3.77,16.65-15.01a1.236,1.236,0,0,0-.647-1.64A1.3,1.3,0,0,0,223.119,1659.59Zm5.959-14.32a1.267,1.267,0,0,0-1.087.61c-0.2.35-4.973,8.5-3.265,14.92a8.738,8.738,0,0,0,4.245,5.48,7.945,7.945,0,0,0,8.815-.17,8.261,8.261,0,0,0,3.488-8.02,6.114,6.114,0,0,0-4.964-4.71,4.391,4.391,0,0,0-4.229.79c-1.676,1.59-1.2,4.37-1.137,4.68a1.255,1.255,0,0,0,1.474.99,1.238,1.238,0,0,0,1-1.45,3.216,3.216,0,0,1,.409-2.43,2.3,2.3,0,0,1,1.909-.15,3.614,3.614,0,0,1,3.066,2.77,5.8,5.8,0,0,1-2.482,5.5,5.414,5.414,0,0,1-6.086.04,6.211,6.211,0,0,1-3.072-3.95c-1.444-5.41,2.957-12.95,3-13.03A1.247,1.247,0,0,0,229.078,1645.27Zm-0.22-140.46c-8.821,0-17.807,4.66-25.1,8.45-18.741,9.72-25.584,24.37-33.508,41.33-1.285,2.75-2.614,5.6-4.018,8.47-12.9,26.36-27.278,43.79-45.238,54.85a1.244,1.244,0,0,0-.4,1.72,1.275,1.275,0,0,0,1.735.4c18.382-11.32,33.055-29.08,46.175-55.89,1.413-2.89,2.747-5.74,4.037-8.5,7.731-16.55,14.408-30.85,32.391-40.18,7.416-3.84,16.635-8.62,25.223-8.11a1.247,1.247,0,1,0,.151-2.49C229.82,1504.83,229.339,1504.81,228.858,1504.81Zm4.726,23.11a1.292,1.292,0,0,0-.336.04c-10.443,2.86-18.841,12.18-24.959,27.72-1.638,4.16-3.067,8.29-4.45,12.29-5.191,15.02-10.095,29.21-24.719,39.79-15.423,11.17-29.762,10.75-46.367,10.28-3.3-.09-6.714-0.19-10.252-0.2H122.5a1.245,1.245,0,1,0,0,2.49c3.507,0.01,6.9.11,10.189,0.2,17.068,0.49,31.808.91,47.928-10.76,15.263-11.05,20.291-25.59,25.615-40.99,1.374-3.98,2.794-8.09,4.414-12.2,5.814-14.76,13.647-23.58,23.283-26.22a1.242,1.242,0,0,0,.878-1.53A1.257,1.257,0,0,0,233.584,1527.92Zm-5.153-16.48c-9.017,0-23.612,8.9-28.357,12.51-9.008,6.85-15.128,17.04-18.676,24.37-2.193,4.54-4.116,9.17-5.977,13.65-1.311,3.16-2.666,6.42-4.107,9.63-9.354,20.83-20.307,34.45-32.554,40.5a1.236,1.236,0,0,0-.565,1.67,1.269,1.269,0,0,0,1.689.56c12.785-6.31,24.134-20.35,33.732-41.72,1.455-3.24,2.818-6.52,4.136-9.69,1.847-4.45,3.756-9.05,5.919-13.52,3.43-7.09,9.325-16.92,17.939-23.47,6.616-5.04,21.825-13.29,28.563-11.83a1.25,1.25,0,1,0,.54-2.44A11.04,11.04,0,0,0,228.431,1511.44Zm3.958,9.34a1.149,1.149,0,0,0-.362.06c-13.163,3.89-21.947,14.99-24.752,20.31a145.785,145.785,0,0,0-8.014,19.3c-3.42,9.53-6.955,19.38-14.2,29.19-4.58,6.2-9.96,12.45-18.251,16.25a76.629,76.629,0,0,1-27.32,6.22,1.247,1.247,0,0,0-1.214,1.29,1.263,1.263,0,0,0,1.3,1.2,78.159,78.159,0,0,0,28.289-6.45c8.809-4.03,14.446-10.57,19.226-17.04,7.466-10.1,11.065-20.13,14.545-29.83a144.124,144.124,0,0,1,7.873-18.98c2.635-5,10.884-15.42,23.242-19.08a1.24,1.24,0,0,0,.845-1.55A1.259,1.259,0,0,0,232.389,1520.78ZM161,1594.58a1.172,1.172,0,0,0-.48.1,1.241,1.241,0,0,0-.683,1.63c1.253,3,2.8,5.96,4.3,8.83,0.368,0.7.734,1.4,1.095,2.09a1.264,1.264,0,0,0,1.694.55,1.246,1.246,0,0,0,.549-1.68c-0.362-.7-0.73-1.4-1.1-2.11-1.475-2.82-3-5.73-4.212-8.64A1.261,1.261,0,0,0,161,1594.58Zm8.894-17.83a1.347,1.347,0,0,0-.48.09,1.242,1.242,0,0,0-.684,1.63,84.739,84.739,0,0,0,11.122,18.51,1.265,1.265,0,0,0,1.768.21,1.237,1.237,0,0,0,.219-1.75,81.625,81.625,0,0,1-10.78-17.92A1.261,1.261,0,0,0,169.9,1576.75Zm5.972-11.36a1.373,1.373,0,0,0-.485.09,1.243,1.243,0,0,0-.676,1.63c2.164,5.13,6.569,9.13,10.83,13,1.51,1.37,2.937,2.66,4.238,3.99a1.272,1.272,0,0,0,1.781.02,1.234,1.234,0,0,0,.023-1.76c-1.35-1.38-2.8-2.69-4.339-4.09-4.06-3.69-8.258-7.5-10.209-12.12A1.252,1.252,0,0,0,175.869,1565.39Zm6.014-15.86a1.256,1.256,0,0,0-.944.42,1.237,1.237,0,0,0,.109,1.76,57.407,57.407,0,0,1,5.092,5.31c3.419,3.86,6.954,7.86,11.936,9.73a1.261,1.261,0,0,0,1.625-.72,1.241,1.241,0,0,0-.731-1.61c-4.4-1.65-7.719-5.41-10.934-9.04a61.222,61.222,0,0,0-5.319-5.54A1.26,1.26,0,0,0,181.883,1549.53Zm7.028-12.46a1.286,1.286,0,0,0-.927.4,1.248,1.248,0,0,0,.072,1.77c1.321,1.2,2.6,2.58,3.949,4.05,3.341,3.62,6.8,7.36,11.47,8.99a1.263,1.263,0,0,0,1.608-.76,1.242,1.242,0,0,0-.768-1.59c-4.079-1.42-7.318-4.93-10.451-8.33-1.327-1.43-2.7-2.92-4.1-4.2A1.266,1.266,0,0,0,188.911,1537.07Zm12.338-12.2a1.273,1.273,0,0,0-.647.18,1.237,1.237,0,0,0-.431,1.71c2.565,4.22,6.566,9.59,11.054,11.14a1.262,1.262,0,0,0,1.6-.77,1.246,1.246,0,0,0-.774-1.59c-2.947-1.02-6.4-4.59-9.725-10.07A1.255,1.255,0,0,0,201.249,1524.87Zm13.858-9.98a1.308,1.308,0,0,0-.472.09,1.25,1.25,0,0,0-.695,1.63c1.661,4.06,3.308,7.66,6.651,10.73a1.271,1.271,0,0,0,1.78-.06,1.236,1.236,0,0,0-.067-1.76c-2.963-2.72-4.483-6.07-6.029-9.85A1.253,1.253,0,0,0,215.107,1514.89Zm15.039-9.48a1.256,1.256,0,0,0-1.248,1.09c-0.687,5.34,1.226,12.24,2.914,18.34,0.554,2,1.077,3.88,1.442,5.5a1.263,1.263,0,0,0,1.5.95,1.25,1.25,0,0,0,.956-1.49c-0.378-1.68-.909-3.59-1.471-5.62-1.545-5.58-3.468-12.52-2.845-17.37a1.243,1.243,0,0,0-1.09-1.39A0.876,0.876,0,0,0,230.146,1505.41Zm-12.534-10.83a34.23,34.23,0,0,0-9.08,1.25c-9.9,2.72-13.286,4.43-15.511,14.36l-0.648,2.9,2.542-1.57c0.851-.52,1.753-1.09,2.7-1.68,8.813-5.53,22.133-13.88,31.755-10.39a1.257,1.257,0,0,0,1.536-.56,1.322,1.322,0,0,0,.229-0.4,1.242,1.242,0,0,0-.768-1.59A38.437,38.437,0,0,0,217.612,1494.58Zm-21.335,13.15c1.977-6.2,5.028-7.33,12.928-9.5a31.768,31.768,0,0,1,8.438-1.18,0.925,0.925,0,0,1,.166.01C210.078,1499.07,202.206,1504.01,196.277,1507.73Zm-8.835-1.79a1.261,1.261,0,0,0-1.175.79c-4.423,11.27-11.163,26.52-18.158,35.16-12.68,15.67-34.1,18.55-49.842,18.22-1.527-.04-3.061-0.06-4.6-0.08a137.447,137.447,0,0,1-18.487-1.07,1.26,1.26,0,0,0-1.436,1.04,1.246,1.246,0,0,0,1.055,1.42,138.55,138.55,0,0,0,18.833,1.11c1.531,0.02,3.058.04,4.578,0.07,16.306,0.35,38.54-2.69,51.862-19.15,7.2-8.89,14.054-24.39,18.541-35.82a1.239,1.239,0,0,0-.718-1.61A1.213,1.213,0,0,0,187.442,1505.94Zm-47.206,11.07a1.28,1.28,0,0,0-.428.07c-18.709,6.69-36.635,23.24-45.67,42.17a1.23,1.23,0,0,0,.6,1.65,1.261,1.261,0,0,0,1.677-.59c8.765-18.36,26.133-34.41,44.248-40.88A1.245,1.245,0,0,0,140.236,1517.01Zm47.073-11.77a1.273,1.273,0,0,0-1.065.58c-3.86,6.03-13.651,10.13-21.527,11.97-5.912,1.38-19.158,2.38-23.4-.62a1.268,1.268,0,0,0-1.757.29,1.241,1.241,0,0,0,.292,1.74c5.637,3.99,20.621,2.14,25.442,1.01,8.359-1.94,18.812-6.4,23.077-13.05a1.239,1.239,0,0,0-.389-1.72A1.283,1.283,0,0,0,187.309,1505.24Zm-17.292,10.99h-0.112a1.252,1.252,0,0,0-1.144,1.35c0.218,2.47,1.337,5.87,2.522,9.46,0.813,2.47,1.653,5.02,2.11,7.07a1.26,1.26,0,0,0,2.461-.54c-0.484-2.17-1.344-4.78-2.176-7.3a49.431,49.431,0,0,1-2.408-8.9A1.255,1.255,0,0,0,170.017,1516.23Zm-15,4.99H154.86a1.254,1.254,0,0,0-1.1,1.39,88.281,88.281,0,0,0,3.666,15.03,110.689,110.689,0,0,1,3.033,11.26,1.259,1.259,0,0,0,2.474-.47,111.991,111.991,0,0,0-3.1-11.51,86.867,86.867,0,0,1-3.576-14.61A1.254,1.254,0,0,0,155.016,1521.22Zm-21.171-.67h-0.066a1.253,1.253,0,0,0-1.193,1.31,74.4,74.4,0,0,0,1.179,8.67c0.407,2.31.827,4.7,1.051,6.98,0.624,6.34,1.879,14.5,6.08,21.45a1.271,1.271,0,0,0,1.728.43,1.241,1.241,0,0,0,.434-1.71c-3.943-6.53-5.136-14.34-5.734-20.41-0.233-2.37-.662-4.81-1.077-7.17a71.538,71.538,0,0,1-1.145-8.37A1.249,1.249,0,0,0,133.845,1520.55Zm-9.836,17.66a8.057,8.057,0,0,0-2.714.49,1.285,1.285,0,0,0-.5.14c-0.167.09-.327,0.18-0.483,0.27-0.053.03-.1,0.06-0.152,0.09a7.592,7.592,0,0,0-3.291,9.48,8.092,8.092,0,0,0,9.594,5,7.249,7.249,0,0,0,4.742-3.95,7.17,7.17,0,0,0,.081-6.16,9.188,9.188,0,0,0-4.958-4.96A6.8,6.8,0,0,0,124.009,1538.21Zm-2.5,3.1a5.142,5.142,0,0,1,3.963-.35,6.663,6.663,0,0,1,3.53,3.66,4.7,4.7,0,0,1-.071,4.04,4.759,4.759,0,0,1-3.091,2.61,5.538,5.538,0,0,1-6.617-3.48A5.078,5.078,0,0,1,121.507,1541.31Zm26.5,3.82c-0.077.1-.155,0.19-0.232,0.28a2.062,2.062,0,0,1,.787-0.67,1.909,1.909,0,0,1,1.481-.09,2.127,2.127,0,0,1,1.366,2.18,2.082,2.082,0,0,1-2.729,1.8A2.057,2.057,0,0,1,148.008,1545.13Zm-1.42-8.87a2.114,2.114,0,0,1,2.078.15,2.185,2.185,0,0,1,.76.84,2.254,2.254,0,0,1,.063,2.6,2.317,2.317,0,0,1-3.622.2,2.528,2.528,0,0,1-.625-1.81A2.441,2.441,0,0,1,146.588,1536.26Zm0.9-7.5c2.5,1.68-.14,5.53-2.641,3.85S144.99,1527.08,147.491,1528.76Zm18.372,4.02a1.855,1.855,0,0,1,1.778-.31,0.158,0.158,0,0,0,.152.16,1.5,1.5,0,0,1,.647.36,1.791,1.791,0,0,1,.494,1.32,6.881,6.881,0,0,0,0-.71c0.012,0.02.032,0.05,0.043,0.07a2.013,2.013,0,0,1-.154,2,2.059,2.059,0,0,1-1.818.87,2.087,2.087,0,0,1-1.7-1.14A2.132,2.132,0,0,1,165.863,1532.78Zm1.778-.31c-0.006-.36,1.17-1.03,1.289,1.13a2.045,2.045,0,0,0-.49-0.61A1.973,1.973,0,0,0,167.641,1532.47Zm-2.994-8.03a2.2,2.2,0,0,1,2.006.7,0.54,0.54,0,0,1,.088.08c1.449,1.42-.4,4.11-2.267,3.3a0.576,0.576,0,0,1-.112-0.05,2.217,2.217,0,0,1-1.227-1.08,2.079,2.079,0,0,1,.16-2.07A2.1,2.1,0,0,1,164.647,1524.44ZM125.9,1544.21a2.243,2.243,0,0,1,.6,3.1,2.3,2.3,0,0,1-3.13.59,2.239,2.239,0,0,1-.6-3.1A2.3,2.3,0,0,1,125.9,1544.21Zm42.846,51.46,0.193,0.24a1.152,1.152,0,1,1-1.979.38c0.031-.1.061-0.2,0.091-0.3A1,1,0,0,1,168.744,1595.67Zm3.387-2.96c0.627,0.42-.555,2.14-1.181,1.72A1.046,1.046,0,1,1,172.131,1592.71Zm7.918-10.06a1.176,1.176,0,0,1,.909,1.7,1.04,1.04,0,0,1-1.032.67,1.023,1.023,0,0,1-.93-0.81,1.621,1.621,0,0,1,0-.73,0.577,0.577,0,0,1,.048-0.17A1.061,1.061,0,0,1,180.049,1582.65Zm2.345-2.22c0.625,0.42-.451,1.98-1.076,1.56A0.962,0.962,0,1,1,182.394,1580.43Zm3.483-10.62a0.689,0.689,0,0,1,.3.62,1.033,1.033,0,0,1-.257.7c-0.108.12-.217,0.24-0.335,0.35a2.287,2.287,0,0,1-.247.18,0.818,0.818,0,0,1-1.333-.66A1.286,1.286,0,0,1,185.877,1569.81Zm1.669-3.54c1.25,0.84.327,2.18-.922,1.34C186,1567.19,186.921,1565.85,187.546,1566.27Zm0.9-3.85c0.072-.05.142-0.09,0.213-0.14a0.541,0.541,0,0,1,.1-0.03,0.966,0.966,0,0,1,1.124-.04,0.985,0.985,0,0,1,.084,1.55,1.293,1.293,0,0,1-.635.33,1.119,1.119,0,0,1-.316.02c-0.559-.03-0.128-0.02-0.027-0.03a0.829,0.829,0,0,1-.965-0.85,0.893,0.893,0,0,1,.212-0.59A1.033,1.033,0,0,1,188.442,1562.42Zm4.929-8.63c0.625,0.42-.4,1.92-1.029,1.5C191.091,1554.45,192.12,1552.95,193.371,1553.79Zm2.079-4.71a1.131,1.131,0,0,1-.017,1.87,0.827,0.827,0,0,1-1.308-.88,0.3,0.3,0,0,1,.035-0.1A0.855,0.855,0,0,1,195.45,1549.08Zm3.034-6.28c-0.025.03-.053,0.06-0.079,0.09a0.872,0.872,0,0,1-1.448-.97,0.8,0.8,0,0,0,.062-0.11C197.573,1540.82,199.217,1541.92,198.484,1542.8Zm3.539-5.61c0.626,0.42-.5,2.07-1.128,1.65A1.007,1.007,0,1,1,202.023,1537.19Zm2.173-3.16c0.626,0.42-.316,1.79-0.942,1.37C202,1534.56,202.946,1533.19,204.2,1534.03Zm4.915-5.82c0.052,0.1.1,0.2,0.157,0.3a0.854,0.854,0,1,1-1.627.31c0.011-.11.023-0.23,0.033-0.34A0.764,0.764,0,0,1,209.111,1528.21Zm3.144-3.26c0.625,0.42-.337,1.83-0.963,1.4C210.042,1525.51,211,1524.11,212.255,1524.95Zm3.078-1.82c0.625,0.42-.311,1.79-0.936,1.37C213.147,1523.65,214.083,1522.29,215.333,1523.13Zm6.809-4.19c0.047,0.1.092,0.21,0.14,0.31a0.778,0.778,0,1,1-1.483.28c0.006-.11.012-0.23,0.017-0.34A0.7,0.7,0,0,1,222.142,1518.94Zm3.678-1.76c0.624,0.42-.35,1.84-0.977,1.42C223.594,1517.76,224.569,1516.34,225.82,1517.18Zm-64.347,40.34a1.264,1.264,0,0,0-1.028.52c-5.2,7.23-13.81,10.45-22.137,13.56a90.549,90.549,0,0,0-10.37,4.36c-0.585.31-1.206,0.64-1.851,0.97-6.987,3.6-17.545,9.05-14.717,18.35,1.622,5.34,5.322,8.63,10.149,9.03,4.766,0.4,9.637-2.15,11.582-6.04,1.6-3.22.913-6.82-1.9-9.89-1.959-2.14-5.528-1.93-7.71-.5a5.124,5.124,0,0,0-1.747,6.86,1.262,1.262,0,0,0,1.673.61,1.237,1.237,0,0,0,.613-1.65c-0.94-2.01-.056-3.14.851-3.74,1.455-.95,3.536-0.91,4.452.09,2.141,2.34,2.662,4.8,1.507,7.11-1.48,2.97-5.4,4.96-9.114,4.66-3.8-.31-6.618-2.89-7.945-7.25-2.228-7.33,6.844-12.01,13.469-15.43,0.653-.34,1.283-0.66,1.875-0.98a87.473,87.473,0,0,1,10.072-4.22c8.275-3.1,17.655-6.61,23.3-14.46A1.244,1.244,0,0,0,161.473,1557.52Zm-44.87,8.47a6.729,6.729,0,0,0-5.28,3.02,5.7,5.7,0,0,0-.272,6.36c3.164,5.14,10.943,5.5,22.5,1.04a1.239,1.239,0,0,0,.716-1.61,1.265,1.265,0,0,0-1.631-.71c-13.651,5.27-18.033,2.25-19.43-.01a3.266,3.266,0,0,1,.207-3.67,4.014,4.014,0,0,1,3.519-1.9c0.875,0.15,1.5.88,1.849,2.18a1.262,1.262,0,0,0,1.542.88,1.247,1.247,0,0,0,.891-1.53c-0.826-3.05-2.775-3.81-3.864-3.99A4.588,4.588,0,0,0,116.6,1565.99Zm30.937,2.06a1.161,1.161,0,0,0-.318.04c-0.39.1-9.591,2.53-12.969,8.26a8.617,8.617,0,0,0-.912,6.84,7.809,7.809,0,0,0,6.354,6.05,8.437,8.437,0,0,0,8.194-3.22,6.03,6.03,0,0,0-.142-6.81,4.349,4.349,0,0,0-3.554-2.4c-2.363-.04-3.971,2.25-4.151,2.52a1.237,1.237,0,0,0,.334,1.73,1.274,1.274,0,0,0,1.75-.33,3.3,3.3,0,0,1,2-1.43h0.021a2.225,2.225,0,0,1,1.462,1.23,3.561,3.561,0,0,1,.188,4.1,5.9,5.9,0,0,1-5.686,2.15,5.327,5.327,0,0,1-4.333-4.23,6.146,6.146,0,0,1,.651-4.94c2.846-4.84,11.346-7.09,11.431-7.11A1.244,1.244,0,0,0,147.54,1568.05Zm59.819-113.43c-12.368,0-23.471,4.04-35.733,8.51-2.876,1.04-5.85,2.12-8.893,3.17-27.962,9.62-50.582,11.88-71.185,7.13a1.27,1.27,0,0,0-1.513.94,1.237,1.237,0,0,0,.941,1.49c21.088,4.86,44.151,2.57,72.582-7.2,3.065-1.06,6.05-2.14,8.937-3.19,17.291-6.3,32.225-11.73,51.6-5.74,7.991,2.47,17.936,5.54,23.637,11.91a1.27,1.27,0,0,0,1.778.1,1.236,1.236,0,0,0,.107-1.76c-6.166-6.88-16.482-10.07-24.771-12.63A58.69,58.69,0,0,0,207.359,1454.62ZM91.775,1474.07a1.267,1.267,0,0,0-.887.36,1.234,1.234,0,0,0-.007,1.76c2.47,2.46,4.8,4.91,7.058,7.28,11.72,12.28,21.841,22.9,41.579,25.93,18.687,2.86,32.637-3.9,47.405-11.07,3.811-1.85,7.752-3.76,11.834-5.53,14.659-6.37,26.5-7.13,35.2-2.25a1.265,1.265,0,0,0,1.717-.47,1.24,1.24,0,0,0-.475-1.7c-9.424-5.29-22.025-4.57-37.451,2.14-4.132,1.79-8.1,3.71-11.93,5.57-14.4,6.99-28,13.59-45.911,10.84-18.885-2.9-28.731-13.22-40.132-25.18-2.266-2.37-4.61-4.83-7.1-7.32A1.278,1.278,0,0,0,91.775,1474.07Zm116.592-12.13a76.173,76.173,0,0,0-24.383,4.56c-4.788,1.67-9.452,3.6-13.963,5.46-3.186,1.32-6.481,2.68-9.8,3.94-21.5,8.18-38.978,10.15-51.956,5.85a1.273,1.273,0,0,0-1.594.79,1.247,1.247,0,0,0,.794,1.58c13.549,4.48,31.6,2.5,53.66-5.89,3.35-1.28,6.662-2.65,9.865-3.97,4.478-1.85,9.109-3.76,13.83-5.41,7.493-2.62,18.684-5.44,29.458-4.05,8.273,1.07,24.922,5.87,28.647,11.63a1.269,1.269,0,0,0,1.74.38,1.236,1.236,0,0,0,.382-1.72c-4.751-7.35-23.977-11.92-30.443-12.76A48.41,48.41,0,0,0,208.367,1461.94Zm11.323,15.96a43.6,43.6,0,0,0-12.282,1.63,149.953,149.953,0,0,0-19.457,8.04c-9.228,4.35-18.769,8.84-30.9,10.7-7.661,1.18-15.934,1.84-24.515-1.28a76.1,76.1,0,0,1-23.759-14.72,1.271,1.271,0,0,0-1.78.06,1.236,1.236,0,0,0,.063,1.76,77.589,77.589,0,0,0,24.608,15.24c9.118,3.31,17.773,2.64,25.77,1.41,12.5-1.92,22.207-6.49,31.6-10.92a148.828,148.828,0,0,1,19.13-7.91c5.435-1.69,18.712-3.29,30.067,2.77a1.267,1.267,0,0,0,1.707-.5,1.242,1.242,0,0,0-.511-1.69A42.146,42.146,0,0,0,219.69,1477.9Zm-84.072,6.67a1.261,1.261,0,0,0-1.164.77c-1.259,3-2.28,6.19-3.268,9.26-0.242.76-.482,1.5-0.724,2.24a1.256,1.256,0,0,0,.811,1.58,1.272,1.272,0,0,0,1.586-.81c0.244-.74.485-1.5,0.728-2.25,0.971-3.03,1.976-6.16,3.194-9.06a1.24,1.24,0,0,0-.681-1.63A1.177,1.177,0,0,0,135.618,1484.57Zm19.034-6.39a1.261,1.261,0,0,0-1.164.77,84.076,84.076,0,0,0-5.36,20.87,1.26,1.26,0,0,0,2.5.31,81.373,81.373,0,0,1,5.185-20.22,1.239,1.239,0,0,0-.679-1.63A1.377,1.377,0,0,0,154.652,1478.18Zm12.34-3.85a1.26,1.26,0,0,0-1.166.77c-2.13,5.14-1.874,11.06-1.625,16.78,0.088,2.02.171,3.93,0.147,5.78a1.258,1.258,0,0,0,1.244,1.26,1.275,1.275,0,0,0,1.276-1.23c0.024-1.91-.061-3.86-0.15-5.92-0.237-5.45-.482-11.09,1.439-15.72a1.245,1.245,0,0,0-.687-1.63A1.34,1.34,0,0,0,166.992,1474.33Zm15.582-7H182.5a1.248,1.248,0,0,0-1.18,1.32,57.374,57.374,0,0,1-.191,7.32c-0.344,5.12-.7,10.42,1.486,15.23a1.266,1.266,0,0,0,1.665.63,1.245,1.245,0,0,0,.633-1.65c-1.929-4.24-1.594-9.23-1.27-14.05a60.243,60.243,0,0,0,.192-7.63A1.248,1.248,0,0,0,182.574,1467.33Zm13.872-3.89h-0.052a1.241,1.241,0,0,0-1.208,1.29c0.072,1.78-.013,3.65-0.1,5.63-0.224,4.89-.455,9.96,1.682,14.39a1.262,1.262,0,0,0,1.68.58,1.237,1.237,0,0,0,.594-1.66c-1.866-3.86-1.649-8.61-1.439-13.2,0.088-1.95.18-3.96,0.1-5.84A1.25,1.25,0,0,0,196.446,1463.44Zm17.442,0a1.257,1.257,0,0,0-1.221.95c-1.205,4.78-2.208,11.37-.142,15.61a1.264,1.264,0,0,0,1.681.58,1.248,1.248,0,0,0,.588-1.67c-1.356-2.78-1.244-7.72.318-13.92a1.241,1.241,0,0,0-.918-1.51A1.077,1.077,0,0,0,213.888,1463.44Zm16.931,2.64a1.269,1.269,0,0,0-1.161.76c-1.727,4.04-3.142,7.74-2.971,12.25a1.241,1.241,0,0,0,1.307,1.2,1.257,1.257,0,0,0,1.211-1.29c-0.152-4,1.166-7.43,2.773-11.19a1.24,1.24,0,0,0-.668-1.63A1.222,1.222,0,0,0,230.819,1466.08Zm17.409,3.82a1.3,1.3,0,0,0-.77.26c-4.305,3.3-7.888,9.53-11.049,15.02-1.034,1.8-2.012,3.49-2.908,4.89a1.239,1.239,0,0,0,.388,1.72,1.266,1.266,0,0,0,1.738-.38c0.93-1.45,1.922-3.17,2.971-5,2.894-5.03,6.495-11.28,10.4-14.28a1.239,1.239,0,0,0,.225-1.75A1.28,1.28,0,0,0,248.228,1469.9Zm-19.084-25.84c-2.838,0-5.742,1.12-9.7,3.61l-2.524,1.59,2.913,0.68c0.977,0.22,2.021.45,3.116,0.7,10.18,2.25,25.565,5.67,29.872,14.87a1.264,1.264,0,0,0,1.5.67,1.167,1.167,0,0,0,.438-0.12,1.236,1.236,0,0,0,.593-1.66c-3.539-7.31-8.2-12.41-14.676-16.03C235.814,1445.65,232.527,1444.06,229.144,1444.06Zm-5.634,4.14c5.832-3,8.791-1.66,15.925,2.34a30.894,30.894,0,0,1,6.929,5.19C239.455,1451.74,230.36,1449.72,223.51,1448.2Zm-109.1-35.02a1.285,1.285,0,0,0-.745.24,1.236,1.236,0,0,0-.269,1.74,136.39,136.39,0,0,0,12.524,13.96c1.069,1.09,2.135,2.17,3.188,3.26,11.282,11.66,29.173,25.06,50.356,22.75,11.442-1.25,27.361-7.41,38.7-12.35a1.248,1.248,0,1,0-1.015-2.28c-11.179,4.87-26.839,10.93-37.963,12.15-20.161,2.22-37.37-10.74-48.259-22q-1.587-1.635-3.2-3.27a134.682,134.682,0,0,1-12.3-13.69A1.242,1.242,0,0,0,114.406,1413.18Zm28.839-4.79a86.854,86.854,0,0,0-28.767,4.77,1.237,1.237,0,0,0-.761,1.59,1.267,1.267,0,0,0,1.611.76c19.316-6.86,43.064-6.05,60.5,2.05a1.271,1.271,0,0,0,1.676-.6,1.248,1.248,0,0,0-.6-1.66C167.025,1410.72,155.2,1408.39,143.245,1408.39Zm33.415,6.99a1.492,1.492,0,0,0-.209.02,1.241,1.241,0,0,0-1.035,1.43c1.137,6.77,13.053,15.95,17.265,18.52,7.3,4.48,17.875,8.64,25.648,6.92a1.246,1.246,0,1,0-.551-2.43c-7.034,1.55-16.891-2.39-23.771-6.61-5.166-3.16-15.25-11.72-16.107-16.81A1.253,1.253,0,0,0,176.66,1415.38Zm21.319,20.09a1.247,1.247,0,0,0-.966.45c-1.61,1.9-3.245,5.08-4.976,8.45-1.186,2.31-2.413,4.7-3.555,6.47a1.248,1.248,0,0,0,.384,1.73,1.268,1.268,0,0,0,1.739-.38c1.209-1.88,2.464-4.32,3.678-6.69a49.25,49.25,0,0,1,4.66-7.98,1.244,1.244,0,0,0-.155-1.76A1.3,1.3,0,0,0,197.979,1435.47Zm-14.172-6.97a1.279,1.279,0,0,0-.994.48,89.5,89.5,0,0,0-8.144,13.19,111.462,111.462,0,0,1-5.9,10.09,1.238,1.238,0,0,0,.337,1.73,1.263,1.263,0,0,0,1.749-.33,114.32,114.32,0,0,0,6.036-10.31,86.943,86.943,0,0,1,7.908-12.83,1.237,1.237,0,0,0-.219-1.75A1.253,1.253,0,0,0,183.807,1428.5Zm-14.492-15.28a1.273,1.273,0,0,0-.937.41,73.819,73.819,0,0,0-5.358,6.95c-1.367,1.92-2.78,3.91-4.248,5.67-4.086,4.92-9.031,11.57-11.024,19.42a1.253,1.253,0,0,0,.915,1.52,1.267,1.267,0,0,0,1.528-.91c1.871-7.37,6.608-13.73,10.527-18.44,1.528-1.84,2.969-3.87,4.362-5.82a70.636,70.636,0,0,1,5.17-6.72A1.247,1.247,0,0,0,169.315,1413.22Zm-24.161,3.73a7.687,7.687,0,0,0-7.054,4.65,7.948,7.948,0,0,0,3.212,10.25,7.506,7.506,0,0,0,10.636-3.78,9.023,9.023,0,0,0,.035-6.98,7.248,7.248,0,0,0-3.628-3.46,1.339,1.339,0,0,0-.45-0.24,5.331,5.331,0,0,0-.521-0.15,1.361,1.361,0,0,0-.195-0.05A9.244,9.244,0,0,0,145.154,1416.95Zm-0.225,13.37a4.622,4.622,0,0,1-2.335-.62,5.432,5.432,0,0,1-2.191-7.09,5.133,5.133,0,0,1,9.3-.46,6.6,6.6,0,0,1-.119,5.06,4.776,4.776,0,0,1-2.941,2.81A5.134,5.134,0,0,1,144.929,1430.32Zm17.725,10.56-0.364.03a2.023,2.023,0,0,1,1.035.08,1.9,1.9,0,0,1,1.114.97,2.126,2.126,0,0,1-.592,2.5,2.1,2.1,0,0,1-3.213-.64A2.062,2.062,0,0,1,162.654,1440.88Zm5.337-7.27a2.053,2.053,0,0,1,1.36,1.56,2.2,2.2,0,0,1-.065,1.13,2.273,2.273,0,0,1-4.512-.52A2.44,2.44,0,0,1,167.991,1433.61Zm5.995-4.67c0.565,2.94-4.05,3.81-4.618.87S173.418,1426,173.986,1428.94Zm10.118,15.7a1.833,1.833,0,0,1,1.478,1.02,0.162,0.162,0,0,0,0,.22,1.508,1.508,0,0,1,.2.71,1.81,1.81,0,0,1-.6,1.28,6.247,6.247,0,0,0,.509-0.51c-0.009.03-.012,0.06-0.021,0.08a2.029,2.029,0,0,1-3.83-1.34A2.164,2.164,0,0,1,184.1,1444.64Zm1.478,1.02c0.257-.26,1.568.09,0.108,1.7a2.146,2.146,0,0,0,.09-0.77A1.881,1.881,0,0,0,185.582,1445.66Zm3.443-7.77a2,2,0,0,1,.74,1.89v0.13a1.991,1.991,0,0,1-3.78.74c-0.016-.03.061-0.07,0.046-0.11a2.176,2.176,0,0,1-.05-1.62,2.023,2.023,0,0,1,1.529-1.36A1.991,1.991,0,0,1,189.025,1437.89Zm-41.35-13.14a2.252,2.252,0,1,1-2.633-1.77A2.278,2.278,0,0,1,147.675,1424.75Zm-6.469,66.37c-0.012.1-.024,0.2-0.037,0.31a1.171,1.171,0,0,1-1.8.85,1.147,1.147,0,0,1,.139-1.97l0.274-.15A1,1,0,0,1,141.206,1491.12Zm4.368-.45c0.143,0.73-1.923,1.12-2.065.39A1.053,1.053,0,1,1,145.574,1490.67Zm13.258-1.63a1.165,1.165,0,0,1-.567,1.83,1.062,1.062,0,0,1-1.213-.25,1,1,0,0,1-.076-1.22,1.74,1.74,0,0,1,.526-0.52,0.759,0.759,0,0,1,.149-0.08A1.045,1.045,0,0,1,158.832,1489.04Zm2.776,0.12c0.141,0.74-1.739,1.09-1.881.36A0.97,0.97,0,1,1,161.608,1489.16Zm10.192-4.34a0.707,0.707,0,0,1-.23.66,1.082,1.082,0,0,1-.68.31c-0.165.01-.328,0.02-0.491,0.02a1.417,1.417,0,0,1-.3-0.05,0.807,0.807,0,0,1-.466-1.4A1.3,1.3,0,0,1,171.8,1484.82Zm3.568-2.07c0.283,1.47-1.33,1.78-1.613.31C173.614,1482.32,175.227,1482.02,175.368,1482.75Zm3.526-1.36,0.248,0.06a0.782,0.782,0,0,1,.093.04,0.952,0.952,0,0,1,.822.76,0.991,0.991,0,0,1-1.049,1.15,1.323,1.323,0,0,1-.925-0.41c-0.369-.42-0.074-0.11,0-0.04a0.825,0.825,0,0,1-.077-1.28,0.95,0.95,0,0,1,.574-0.27A1.077,1.077,0,0,1,178.894,1481.39Zm9.508-3.38c0.142,0.73-1.656,1.07-1.8.34A0.934,0.934,0,1,1,188.4,1478.01Zm5.307-1.93a1.134,1.134,0,0,1-1.343,1.3,0.818,0.818,0,0,1-.3-1.54,0.314,0.314,0,0,1,.094-0.04A0.855,0.855,0,0,1,193.709,1476.08Zm6.3-1.53c-0.04,0-.084.01-0.124,0.01a0.866,0.866,0,0,1-.329-1.7l0.122-.03C200.784,1472.51,201.158,1474.44,200.013,1474.55Zm6.367-2.22c0.142,0.73-1.831,1.1-1.973.37A1.01,1.01,0,1,1,206.38,1472.33Zm3.8-.72c0.142,0.73-1.5,1.04-1.647.31C208.247,1470.45,209.894,1470.14,210.177,1471.61Zm7.776,0.06c-0.036.11-.071,0.21-0.107,0.32a0.87,0.87,0,0,1-1.289.42,0.85,0.85,0,0,1-.08-1.34c0.088-.07.176-0.14,0.267-0.22A0.762,0.762,0,0,1,217.953,1471.67Zm4.406-.84c0.141,0.74-1.54,1.05-1.681.32C220.394,1469.68,222.077,1469.36,222.359,1470.83Zm3.48,0.87c0.141,0.73-1.5,1.04-1.638.31C223.918,1470.54,225.555,1470.23,225.839,1471.7Zm7.949,2.53c-0.041.11-.082,0.21-0.122,0.32a0.791,0.791,0,0,1-1.174.38,0.775,0.775,0,0,1-.074-1.22c0.086-.08.169-0.15,0.255-0.23A0.7,0.7,0,0,1,233.788,1474.23Zm3.72,0.59c0.141,0.74-1.563,1.06-1.707.33C235.519,1473.68,237.225,1473.35,237.508,1474.82ZM111.1,1445.27c-4.166,0-7.951,1.32-10.185,5.43-2.665,4.91-2.4,9.82.729,13.48,3.09,3.62,8.349,5.23,12.507,3.84,3.43-1.15,5.515-4.18,5.722-8.32,0.145-2.89-2.534-5.23-5.1-5.75a5.211,5.211,0,0,0-6.136,3.63,1.242,1.242,0,0,0,.748,1.6,1.258,1.258,0,0,0,1.617-.74c0.77-2.08,2.2-2.26,3.269-2.05,1.711,0.35,3.152,1.83,3.084,3.18-0.157,3.16-1.545,5.26-4.013,6.08-3.165,1.06-7.367-.26-9.775-3.08-2.461-2.88-2.614-6.67-.434-10.69,3.659-6.74,13.417-3.7,20.544-1.48,0.7,0.22,1.382.43,2.026,0.62a87.568,87.568,0,0,1,10.142,4.06c8.064,3.6,17.206,7.68,26.8,6.09a1.248,1.248,0,1,0-.417-2.46c-8.842,1.47-17.233-2.28-25.348-5.9a88.8,88.8,0,0,0-10.448-4.18c-0.636-.19-1.3-0.39-2-0.61C120.53,1446.81,115.592,1445.27,111.1,1445.27Zm9.936-13.31a7.172,7.172,0,0,0-1.38.13,5.791,5.791,0,0,0-4.74,4.31c-1.433,5.85,3.81,11.54,15.163,16.48a1.275,1.275,0,0,0,1.66-.65,1.24,1.24,0,0,0-.647-1.64c-5.759-2.5-15.2-7.59-13.728-13.6a3.3,3.3,0,0,1,2.768-2.45,4.027,4.027,0,0,1,3.844,1.12c0.514,0.71.43,1.67-.25,2.83a1.235,1.235,0,0,0,.461,1.7,1.266,1.266,0,0,0,1.721-.45c1.6-2.74.76-4.64,0.12-5.53A6.164,6.164,0,0,0,121.033,1431.96Zm12.62,21a11.845,11.845,0,0,0-3.032.37,8.756,8.756,0,0,0-5.534,4.2,7.7,7.7,0,0,0,.171,8.72,8.413,8.413,0,0,0,8.1,3.45,6.1,6.1,0,0,0,4.762-4.91,4.26,4.26,0,0,0-.795-4.18c-1.609-1.66-4.419-1.19-4.735-1.13a1.248,1.248,0,0,0-1,1.46,1.271,1.271,0,0,0,1.474.99,3.328,3.328,0,0,1,2.447.4,2.222,2.222,0,0,1,.157,1.89,3.615,3.615,0,0,1-2.8,3.04,5.921,5.921,0,0,1-5.56-2.46,5.262,5.262,0,0,1-.041-6.02,6.255,6.255,0,0,1,3.991-3.04c5.469-1.43,13.089,2.92,13.165,2.97a1.269,1.269,0,0,0,1.723-.45,1.234,1.234,0,0,0-.449-1.7C145.4,1456.39,139.421,1452.96,133.653,1452.96Zm39.236-102.88a1.253,1.253,0,0,0-1.068,1.91c11.438,18.19,29.383,32.71,56.473,45.69,2.919,1.4,5.8,2.72,8.595,4,16.725,7.65,31.168,14.26,40.593,32.05,3.885,7.34,8.721,16.47,8.2,24.96a1.259,1.259,0,0,0,2.514.15c0.559-9.18-4.457-18.65-8.488-26.27-9.822-18.54-24.625-25.31-41.767-33.15-2.78-1.28-5.656-2.59-8.554-3.98-26.642-12.77-44.256-27-55.432-44.77A1.263,1.263,0,0,0,172.889,1350.08Zm-0.111.83a1.257,1.257,0,0,0-1.26,1.24c-0.013,3.47-.111,6.83-0.206,10.09-0.494,16.89-.92,31.47,10.872,47.43,11.165,15.1,25.864,20.08,41.427,25.35,4.015,1.36,8.167,2.76,12.322,4.36,14.916,5.76,23.83,13.51,26.493,23.04a1.258,1.258,0,0,0,2.428-.66c-2.886-10.33-12.309-18.64-28.006-24.7-4.2-1.62-8.382-3.04-12.422-4.4-15.177-5.14-29.512-9.99-40.209-24.47-11.282-15.26-10.867-29.45-10.387-45.88,0.1-3.27.194-6.65,0.208-10.15a1.25,1.25,0,0,0-1.255-1.25h0Zm5.932,16.65a1.248,1.248,0,0,0-1.127,1.8c6.374,12.66,20.556,23.89,42.152,33.39,3.281,1.44,6.6,2.79,9.812,4.1,4.487,1.82,9.128,3.71,13.643,5.85,7.167,3.39,17.1,9.23,23.723,17.75,5.085,6.55,13.426,21.6,11.949,28.27a1.244,1.244,0,0,0,.96,1.48,1.259,1.259,0,0,0,1.5-.95c1.885-8.51-8.439-25.2-12.413-30.32-6.926-8.92-17.218-14.97-24.633-18.48-4.579-2.17-9.252-4.07-13.773-5.91-3.194-1.3-6.5-2.64-9.745-4.07-21.048-9.26-34.816-20.1-40.921-32.22A1.257,1.257,0,0,0,178.71,1367.56Zm-0.139.21h-0.046a1.248,1.248,0,0,0-1.214,1.29,75.978,75.978,0,0,0,6.51,27.99c4.081,8.72,10.688,14.3,17.22,19.03,10.205,7.39,20.339,10.95,30.139,14.39a147.036,147.036,0,0,1,19.183,7.8c5.051,2.6,15.58,10.77,19.278,23a1.268,1.268,0,0,0,1.569.84,1.255,1.255,0,0,0,.845-1.56c-3.939-13.03-15.149-21.72-20.526-24.49a149.264,149.264,0,0,0-19.506-7.94c-9.63-3.38-19.587-6.88-29.494-14.05-6.26-4.53-12.581-9.86-16.422-18.06a74.507,74.507,0,0,1-6.278-27.04A1.254,1.254,0,0,0,178.571,1367.77Zm17.7,21.25a1.356,1.356,0,0,0-.481.09c-3.036,1.25-6.03,2.78-8.927,4.26q-1.062.555-2.115,1.08a1.246,1.246,0,0,0-.548,1.68,1.272,1.272,0,0,0,1.7.54c0.705-.35,1.414-0.72,2.126-1.08,2.849-1.46,5.795-2.97,8.73-4.17a1.241,1.241,0,0,0,.683-1.63A1.26,1.26,0,0,0,196.273,1389.02Zm18.023,8.8a1.341,1.341,0,0,0-.479.09,85.951,85.951,0,0,0-18.7,11.01,1.241,1.241,0,0,0-.219,1.75,1.266,1.266,0,0,0,1.768.22,82.882,82.882,0,0,1,18.115-10.67,1.242,1.242,0,0,0,.684-1.63A1.26,1.26,0,0,0,214.3,1397.82Zm11.481,5.91a1.194,1.194,0,0,0-.485.1c-5.18,2.14-9.224,6.5-13.135,10.72-1.385,1.49-2.692,2.9-4.025,4.19a1.234,1.234,0,0,0-.023,1.76,1.264,1.264,0,0,0,1.782.03c1.383-1.34,2.714-2.77,4.122-4.29,3.727-4.02,7.581-8.18,12.25-10.11a1.245,1.245,0,0,0,.677-1.63A1.261,1.261,0,0,0,225.777,1403.73Zm16.022,5.95a1.258,1.258,0,0,0-.945.42,57.464,57.464,0,0,1-5.362,5.04c-3.906,3.39-7.944,6.88-9.834,11.81a1.241,1.241,0,0,0,.73,1.61,1.26,1.26,0,0,0,1.625-.72c1.668-4.35,5.465-7.64,9.138-10.82a60.559,60.559,0,0,0,5.591-5.27,1.239,1.239,0,0,0-.109-1.76A1.26,1.26,0,0,0,241.8,1409.68Zm12.588,6.96a1.246,1.246,0,0,0-.926.4c-1.218,1.3-2.614,2.57-4.092,3.9-3.657,3.31-7.438,6.73-9.092,11.36a1.242,1.242,0,0,0,.767,1.59,1.263,1.263,0,0,0,1.608-.76c1.443-4.04,4.988-7.25,8.417-10.35,1.452-1.31,2.953-2.67,4.244-4.05a1.236,1.236,0,0,0-.072-1.76A1.27,1.27,0,0,0,254.387,1416.64Zm12.331,12.21a1.273,1.273,0,0,0-.647.18c-4.27,2.53-9.689,6.49-11.257,10.94a1.232,1.232,0,0,0,.774,1.58,1.258,1.258,0,0,0,1.6-.76c1.029-2.92,4.643-6.34,10.175-9.63a1.238,1.238,0,0,0,.432-1.71A1.258,1.258,0,0,0,266.718,1428.85Zm10.083,13.71a1.308,1.308,0,0,0-.472.09c-4.1,1.64-7.745,3.27-10.851,6.58a1.247,1.247,0,0,0,.067,1.77,1.281,1.281,0,0,0,1.78-.07c2.752-2.94,6.134-4.44,9.949-5.97a1.235,1.235,0,0,0,.695-1.62A1.268,1.268,0,0,0,276.8,1442.56Zm7.332,14.75c-4.971,0-10.849,1.6-16.125,3.03-2.019.55-3.926,1.07-5.561,1.43a1.239,1.239,0,0,0-.955,1.48,1.257,1.257,0,0,0,1.5.95c1.694-.37,3.629-0.9,5.678-1.45,5.638-1.53,12.656-3.44,17.552-2.82a1.263,1.263,0,0,0,1.409-1.08,1.244,1.244,0,0,0-1.091-1.39A18.825,18.825,0,0,0,284.133,1457.31Zm-4.249-36,1.579,2.51c0.528,0.85,1.1,1.74,1.7,2.67,5.587,8.73,14.03,21.91,10.5,31.43a1.238,1.238,0,0,0,.572,1.52,1.165,1.165,0,0,0,.4.23,1.27,1.27,0,0,0,1.607-.76c2.725-7.65,3.068-14.52,1.079-21.61-2.745-9.8-4.476-13.15-14.513-15.35Zm16.2,25.17c-2.04-7.65-7.028-15.44-10.786-21.31,6.269,1.96,7.4,4.98,9.594,12.8A30.567,30.567,0,0,1,296.084,1446.48Zm-63.8-122.79a1.253,1.253,0,0,0-1.243,1.06,134.2,134.2,0,0,0-1.117,18.63c-0.021,1.52-.041,3.03-0.073,4.54-0.354,16.14,2.715,38.14,19.349,51.32,8.99,7.12,24.643,13.91,36.192,18.35a1.265,1.265,0,0,0,1.63-.71,1.239,1.239,0,0,0-.718-1.61c-11.384-4.38-26.79-11.05-35.53-17.97-15.83-12.55-18.746-33.75-18.4-49.33,0.033-1.51.054-3.03,0.074-4.56a132.431,132.431,0,0,1,1.088-18.28,1.246,1.246,0,0,0-1.055-1.42A1.264,1.264,0,0,0,232.286,1323.69Zm0.419,0.28a1.269,1.269,0,0,0-1.14.72,1.245,1.245,0,0,0,.6,1.66c18.554,8.67,34.77,25.86,41.312,43.79a1.273,1.273,0,0,0,1.612.75,1.248,1.248,0,0,0,.757-1.6c-6.756-18.52-23.479-36.26-42.606-45.2A1.279,1.279,0,0,0,232.705,1323.97Zm42.028,44.84a1.259,1.259,0,0,0-1.026.52c-4.027,5.58-2.161,20.41-1.026,25.18,1.97,8.28,6.471,18.62,13.2,22.84a1.261,1.261,0,0,0,1.739-.39,1.239,1.239,0,0,0-.39-1.72c-6.085-3.81-10.237-13.5-12.093-21.3-1.392-5.85-2.4-18.96.623-23.16a1.24,1.24,0,0,0-.292-1.74A1.313,1.313,0,0,0,274.733,1368.81Zm0.721,29.13h-0.112c-2.5.22-5.931,1.33-9.566,2.5-2.489.8-5.062,1.63-7.133,2.09a1.245,1.245,0,1,0,.543,2.43c2.192-.48,4.825-1.33,7.371-2.15a50.141,50.141,0,0,1,9-2.38A1.247,1.247,0,0,0,275.454,1397.94Zm-5.042-14.85c-0.052,0-.1.01-0.156,0.01a90.691,90.691,0,0,0-15.181,3.63,113.593,113.593,0,0,1-11.38,3,1.248,1.248,0,1,0,.477,2.45,113.91,113.91,0,0,0,11.636-3.07,89.333,89.333,0,0,1,14.757-3.53A1.249,1.249,0,0,0,270.412,1383.09Zm0.674-20.95H271.02a78.031,78.031,0,0,0-8.761,1.17c-2.337.4-4.754,0.82-7.051,1.04-6.4.62-14.654,1.86-21.673,6.02a1.24,1.24,0,0,0-.434,1.71,1.272,1.272,0,0,0,1.728.43c6.588-3.91,14.482-5.09,20.623-5.68,2.391-.23,4.855-0.65,7.238-1.06a72.4,72.4,0,0,1,8.46-1.14A1.246,1.246,0,0,0,271.086,1362.14Zm-24.224-16.09a8.3,8.3,0,0,0-2.944.54,7.979,7.979,0,0,0-5.053,9.5,7.262,7.262,0,0,0,3.989,4.69,7.417,7.417,0,0,0,6.23.08,9.163,9.163,0,0,0,5.01-4.91,7.092,7.092,0,0,0-.094-4.98,1.16,1.16,0,0,0-.142-0.49c-0.087-.17-0.176-0.33-0.269-0.48a1,1,0,0,0-.093-0.15A7.657,7.657,0,0,0,246.862,1346.05Zm-0.773,12.96a5,5,0,0,1-2.154-.49,4.711,4.711,0,0,1-2.629-3.05,5.453,5.453,0,0,1,3.517-6.55,5.167,5.167,0,0,1,6.544,2.26,5.021,5.021,0,0,1,.358,3.92,6.65,6.65,0,0,1-3.7,3.49A4.63,4.63,0,0,1,246.089,1359.01Zm1.414,18.4c-0.094-.08-0.189-0.16-0.282-0.23a1.943,1.943,0,0,1,.675.78,1.848,1.848,0,0,1,.1,1.46,2.151,2.151,0,0,1-2.2,1.35,2.065,2.065,0,0,1-1.816-2.7A2.09,2.09,0,0,1,247.5,1377.41Zm8.97-1.41a2.05,2.05,0,0,1-.157,2.06,2.289,2.289,0,0,1-.851.75,2.312,2.312,0,0,1-2.626.06,2.26,2.26,0,0,1-.2-3.58,2.529,2.529,0,0,1,1.822-.62A2.484,2.484,0,0,1,256.473,1376Zm7.573,0.89c-1.7,2.48-5.587-.14-3.889-2.61S265.745,1374.42,264.046,1376.89Zm-4.062,18.18a1.821,1.821,0,0,1,.312,1.76,0.18,0.18,0,0,0-.16.15,1.48,1.48,0,0,1-.36.64,1.779,1.779,0,0,1-1.34.49,5.792,5.792,0,0,0,.723,0c-0.024.01-.048,0.03-0.073,0.04a2.047,2.047,0,0,1-2.016-.15,2.012,2.012,0,0,1-.884-1.8,2.071,2.071,0,0,1,1.151-1.68A2.2,2.2,0,0,1,259.984,1395.07Zm0.312,1.76c0.369,0,1.048,1.16-1.137,1.28a2.2,2.2,0,0,0,.617-0.49A1.8,1.8,0,0,0,260.3,1396.83Zm8.119-2.96a2.163,2.163,0,0,1-.706,1.99,0.492,0.492,0,0,1-.086.08c-1.432,1.44-4.154-.39-3.336-2.24,0.015-.04.033-0.07,0.049-0.11a2.255,2.255,0,0,1,1.092-1.22,2.181,2.181,0,0,1,2.1.16A2.1,2.1,0,0,1,268.415,1393.87Zm-19.983-38.35a2.289,2.289,0,0,1-3.129.6,2.239,2.239,0,0,1-.6-3.1,2.285,2.285,0,0,1,3.128-.59A2.229,2.229,0,0,1,248.432,1355.52Zm-52,42.41c-0.081.06-.163,0.12-0.244,0.19a1.152,1.152,0,1,1-.379-1.96l0.3,0.09A0.987,0.987,0,0,1,196.436,1397.93Zm3.2,3.04c-0.425.62-2.163-.55-1.739-1.17A1.051,1.051,0,1,1,199.637,1400.97Zm11.085,7.02a1.181,1.181,0,0,1-1.709.9,1.039,1.039,0,0,1-.686-1.02,1.025,1.025,0,0,1,.822-0.92,1.685,1.685,0,0,1,.741,0,0.478,0.478,0,0,1,.165.05A1.033,1.033,0,0,1,210.722,1407.99Zm1.328,3.14c-0.424.61-2.008-.45-1.583-1.07A0.968,0.968,0,1,1,212.05,1411.13Zm10.518,3.75a0.7,0.7,0,0,1-.63.3,1.058,1.058,0,0,1-.7-0.25c-0.125-.11-0.247-0.22-0.359-0.33-0.025-.03-0.293-0.4-0.182-0.25a0.813,0.813,0,0,1,.672-1.32A1.279,1.279,0,0,1,222.568,1414.88Zm3.791,1.34c-0.85,1.24-2.209.33-1.358-.91C225.425,1414.69,226.784,1415.6,226.359,1416.22Zm3.679,1.2c0.044,0.07.09,0.14,0.136,0.21a0.656,0.656,0,0,1,.034.1,0.932,0.932,0,0,1,.041,1.11,1.015,1.015,0,0,1-1.569.08,1.347,1.347,0,0,1-.333-0.63,1.422,1.422,0,0,1-.025-0.31c0.039-.55.024-0.13,0.034-0.03a0.824,0.824,0,0,1,.855-0.95,0.884,0.884,0,0,1,.6.21A1.052,1.052,0,0,1,230.038,1417.42Zm8.929,4.57c-0.425.62-1.94-.4-1.514-1.02C238.3,1419.73,239.817,1420.75,238.967,1421.99Zm5.676,1.24a1.152,1.152,0,0,1-1.882-.01,0.824,0.824,0,0,1,.89-1.3,0.353,0.353,0,0,1,.1.03A0.847,0.847,0,0,1,244.643,1423.23Zm5.22,4.13a0.911,0.911,0,0,0-.1-0.08,0.868,0.868,0,0,1,.982-1.43l0.111,0.06C251.863,1426.45,250.746,1428.08,249.863,1427.36Zm5.875,3.19c-0.424.62-2.085-.5-1.661-1.12A1.008,1.008,0,1,1,255.738,1430.55Zm3.2,2.15c-0.425.62-1.812-.31-1.387-0.93C258.4,1430.53,259.785,1431.46,258.936,1432.7Zm5.669,5.17c-0.1.05-.205,0.11-0.307,0.16a0.85,0.85,0,1,1-.311-1.61l0.344,0.03A0.751,0.751,0,0,1,264.605,1437.87Zm3.5,2.8c-0.424.62-1.841-.33-1.416-0.95C267.539,1438.49,268.955,1439.44,268.105,1440.67Zm1.842,3.05c-0.425.62-1.8-.3-1.379-0.92C269.419,1441.56,270.8,1442.48,269.947,1443.72Zm4.022,7.05c-0.1.04-.208,0.09-0.314,0.14a0.775,0.775,0,1,1-.283-1.47c0.116,0.01.23,0.01,0.345,0.02A0.692,0.692,0,0,1,273.969,1450.77Zm2,3.33c-0.426.62-1.861-.35-1.438-0.97C275.378,1451.9,276.815,1452.86,275.965,1454.1Zm-76.077-113.42a10.651,10.651,0,0,0-3.062.47c-5.391,1.6-8.715,5.26-9.118,10.04-0.4,4.72,2.168,9.54,6.1,11.46,3.248,1.59,6.889.91,9.991-1.88,2.166-1.94,1.946-5.47.5-7.63a5.233,5.233,0,0,0-6.934-1.72,1.237,1.237,0,0,0-.613,1.65,1.262,1.262,0,0,0,1.673.61c2.031-.93,3.173-0.06,3.773.84,0.964,1.44.921,3.5-.091,4.41-2.363,2.12-4.847,2.63-7.183,1.49-3-1.47-5.02-5.35-4.709-9.02,0.317-3.76,2.921-6.55,7.333-7.86,7.4-2.21,12.132,6.77,15.587,13.32q0.511,0.975.988,1.86a86.611,86.611,0,0,1,4.27,9.96c3.129,8.19,6.675,17.48,14.6,23.06a1.258,1.258,0,0,0,1.756-.29,1.24,1.24,0,0,0-.295-1.74c-7.3-5.14-10.559-13.67-13.707-21.91a88.7,88.7,0,0,0-4.406-10.26q-0.47-.87-0.976-1.83C212.144,1349.58,207.45,1340.68,199.888,1340.68ZM219.9,1340a5.747,5.747,0,0,0-2.956.83c-5.193,3.13-5.556,10.83-1.051,22.26a1.257,1.257,0,0,0,1.631.71,1.237,1.237,0,0,0,.716-1.61c-5.324-13.51-2.276-17.85.015-19.23a3.332,3.332,0,0,1,3.708.21,3.939,3.939,0,0,1,1.916,3.48c-0.147.86-.888,1.48-2.2,1.83a1.241,1.241,0,0,0-.89,1.52,1.269,1.269,0,0,0,1.542.89c3.084-.82,3.851-2.75,4.035-3.83a6.362,6.362,0,0,0-2.989-5.96A6.258,6.258,0,0,0,219.9,1340Zm-8.412,22.56a9.534,9.534,0,0,0-2.448.33,7.823,7.823,0,0,0-6.111,6.29,8.262,8.262,0,0,0,3.26,8.11,6.221,6.221,0,0,0,6.879-.14c1.582-.98,2.4-2.16,2.427-3.52,0.047-2.3-2.279-3.93-2.545-4.11a1.274,1.274,0,0,0-1.75.33,1.236,1.236,0,0,0,.334,1.73,3.256,3.256,0,0,1,1.442,2,2.231,2.231,0,0,1-1.238,1.45,3.657,3.657,0,0,1-4.147.18,5.772,5.772,0,0,1-2.177-5.62,5.333,5.333,0,0,1,4.274-4.29,6.324,6.324,0,0,1,5,.65c4.9,2.82,7.16,11.22,7.182,11.31a1.269,1.269,0,0,0,1.537.89,1.252,1.252,0,0,0,.9-1.52c-0.1-.39-2.558-9.49-8.353-12.84A8.809,8.809,0,0,0,211.489,1362.56ZM318.726,1320a1.26,1.26,0,0,0-1.226.96c-4.911,20.87-2.6,43.7,7.281,71.83,1.064,3.04,2.162,5.99,3.223,8.85,6.36,17.11,11.852,31.89,5.8,51.07-2.5,7.9-5.605,17.75-12.036,23.39a1.238,1.238,0,0,0-.107,1.76,1.271,1.271,0,0,0,1.779.1c6.955-6.1,10.178-16.31,12.768-24.51,6.307-19.99.678-35.13-5.84-52.67-1.057-2.85-2.151-5.79-3.208-8.8-9.716-27.68-12.006-50.06-7.207-70.45a1.252,1.252,0,0,0-.941-1.5A1.406,1.406,0,0,0,318.726,1320Zm-0.671.51a1.267,1.267,0,0,0-.887.36c-2.489,2.44-4.96,4.75-7.35,6.98-12.418,11.6-23.144,21.62-26.2,41.15-2.9,18.5,3.94,32.3,11.18,46.92,1.868,3.77,3.8,7.67,5.593,11.71,6.435,14.5,7.2,26.22,2.269,34.83a1.241,1.241,0,0,0,.475,1.7,1.265,1.265,0,0,0,1.717-.47c5.343-9.33,4.618-21.8-2.154-37.06-1.814-4.09-3.758-8.02-5.638-11.81-7.06-14.25-13.729-27.72-10.952-45.43,2.929-18.69,13.363-28.44,25.444-39.72,2.4-2.24,4.885-4.56,7.4-7.03a1.234,1.234,0,0,0,.007-1.76A1.249,1.249,0,0,0,318.055,1320.51Zm-7.7,15.92a1.256,1.256,0,0,0-1.194.86c-4.534,13.4-2.531,31.27,5.952,53.1,1.286,3.31,2.666,6.58,4,9.74,1.871,4.44,3.807,9.03,5.474,13.71,2.644,7.41,5.5,18.48,4.092,29.15-1.084,8.19-5.936,24.66-11.749,28.35a1.235,1.235,0,0,0-.381,1.72,1.269,1.269,0,0,0,1.74.38c7.414-4.7,12.041-23.73,12.888-30.13,1.473-11.15-1.478-22.63-4.214-30.3-1.691-4.75-3.64-9.37-5.525-13.84-1.328-3.15-2.7-6.4-3.974-9.68-8.267-21.27-10.257-38.57-5.914-51.41a1.244,1.244,0,0,0-.8-1.58A1.125,1.125,0,0,0,310.352,1336.43Zm-0.247.05a1.282,1.282,0,0,0-.923.4,76.6,76.6,0,0,0-15.4,24.35c-3.344,9.02-2.659,17.59-1.42,25.5,1.938,12.37,6.558,21.98,11.027,31.27a144.215,144.215,0,0,1,8,18.94c1.709,5.37,3.323,18.51-2.8,29.75a1.242,1.242,0,0,0,.511,1.69,1.262,1.262,0,0,0,1.707-.51c6.526-11.97,4.809-25.96,2.99-31.68a146.075,146.075,0,0,0-8.127-19.26c-4.391-9.13-8.931-18.57-10.812-30.58-1.187-7.58-1.852-15.77,1.3-24.26a74.913,74.913,0,0,1,14.877-23.51A1.252,1.252,0,0,0,310.105,1336.48Zm-14.195,23.5a1.267,1.267,0,0,0-1.2.86,1.242,1.242,0,0,0,.811,1.57c0.764,0.25,1.535.49,2.309,0.73,3.048,0.96,6.2,1.95,9.125,3.16a1.269,1.269,0,0,0,1.647-.68,1.247,1.247,0,0,0-.681-1.63c-3.025-1.24-6.229-2.25-9.328-3.22-0.77-.24-1.536-0.49-2.3-0.73A1.312,1.312,0,0,0,295.91,1359.98Zm-2.779,17.54a1.244,1.244,0,0,0-.153,2.48,83.838,83.838,0,0,1,20.433,5.13,1.272,1.272,0,0,0,1.646-.67,1.238,1.238,0,0,0-.679-1.63,86.291,86.291,0,0,0-21.091-5.31h-0.156Zm13.862,15.75c-1.891,0-3.794.08-5.677,0.16-2.046.09-3.974,0.17-5.838,0.15a1.245,1.245,0,1,0-.031,2.49c1.93,0.02,3.9-.06,5.977-0.15,5.508-.23,11.2-0.48,15.886,1.43a1.271,1.271,0,0,0,1.643-.68,1.244,1.244,0,0,0-.686-1.63A29.869,29.869,0,0,0,306.993,1393.27Zm4.589,16.65a23.185,23.185,0,0,0-9.581,1.73,1.242,1.242,0,0,0-.633,1.65,1.272,1.272,0,0,0,1.666.62c4.288-1.91,9.324-1.58,14.194-1.25a62.339,62.339,0,0,0,7.716.18,1.243,1.243,0,1,0-.154-2.48,60.058,60.058,0,0,1-7.394-.19C315.47,1410.05,313.521,1409.92,311.582,1409.92Zm6.856,13.93a22.883,22.883,0,0,0-9.916,1.81,1.237,1.237,0,0,0-.594,1.66,1.274,1.274,0,0,0,1.68.59c3.906-1.85,8.7-1.64,13.344-1.43,1.964,0.09,4,.18,5.895.1a1.243,1.243,0,0,0,1.209-1.29,1.262,1.262,0,0,0-1.31-1.2c-1.794.07-3.681-.01-5.68-0.1C321.532,1423.92,319.981,1423.85,318.438,1423.85Zm1.195,16.22a14.9,14.9,0,0,0-6.311,1.18,1.247,1.247,0,0,0-.587,1.67,1.264,1.264,0,0,0,1.682.58c2.811-1.34,7.807-1.23,14.07.31a1.248,1.248,0,1,0,.609-2.42A41.235,41.235,0,0,0,319.633,1440.07Zm-4.647,15.18c-0.247,0-.5.01-0.747,0.02a1.246,1.246,0,1,0,.094,2.49c4.041-.15,7.507,1.15,11.3,2.74a1.258,1.258,0,0,0,1.652-.66,1.24,1.24,0,0,0-.668-1.63C322.765,1456.59,319.211,1455.25,314.986,1455.25Zm-12.519,6.57a1.264,1.264,0,0,0-1.065.57,1.249,1.249,0,0,0,.388,1.73c1.463,0.91,3.2,1.9,5.049,2.93,5.081,2.87,11.405,6.43,14.431,10.3a1.273,1.273,0,0,0,1.767.22,1.239,1.239,0,0,0,.225-1.75c-3.333-4.26-9.625-7.8-15.176-10.93-1.817-1.03-3.533-1.99-4.945-2.88A1.271,1.271,0,0,0,302.467,1461.82Zm41.913-16.22-0.681,2.89c-0.228.96-.461,1.99-0.706,3.07-2.282,10.08-5.731,25.31-15.033,29.57a1.562,1.562,0,0,0-.561,1.92,1.262,1.262,0,0,0,1.68.58c7.392-3.5,12.54-8.11,16.2-14.52,5.058-8.85,6.229-12.43.707-21.01Zm-6.531,29.14c4.023-6.84,6.063-15.84,7.6-22.62,3.034,5.77,1.677,8.7-2.36,15.76A30.828,30.828,0,0,1,337.849,1474.74Zm41.732-131.83a1.218,1.218,0,0,0-.745.24,135.8,135.8,0,0,0-14.091,12.38q-1.653,1.59-3.305,3.17c-11.78,11.16-25.331,28.87-22.991,49.83,1.27,11.32,7.489,27.08,12.482,38.3a1.272,1.272,0,0,0,1.661.64,1.25,1.25,0,0,0,.645-1.65c-4.923-11.06-11.049-26.55-12.284-37.57-2.228-19.94,10.859-36.98,22.23-47.75,1.109-1.05,2.213-2.12,3.32-3.18a134.284,134.284,0,0,1,13.825-12.16,1.247,1.247,0,0,0,.269-1.75A1.261,1.261,0,0,0,379.581,1342.91Zm0.094,0.49a1.263,1.263,0,0,0-.425.07,1.242,1.242,0,0,0-.761,1.59c6.923,19.12,6.108,42.62-2.074,59.88a1.232,1.232,0,0,0,.6,1.65,1.257,1.257,0,0,0,1.675-.59c8.451-17.83,9.3-42.07,2.166-61.78A1.253,1.253,0,0,0,379.675,1343.4Zm-2.319,61.11a1.492,1.492,0,0,0-.209.02c-6.836,1.12-16.108,12.92-18.713,17.09-4.52,7.22-8.729,17.68-6.987,25.38a1.26,1.26,0,0,0,2.459-.55c-1.577-6.96,2.412-16.72,6.671-23.52,3.194-5.12,11.842-15.1,16.984-15.94A1.248,1.248,0,0,0,377.356,1404.51ZM342.1,1417.26a1.274,1.274,0,0,0-1.064.58,1.237,1.237,0,0,0,.385,1.72c1.89,1.19,4.356,2.43,6.741,3.63a50.609,50.609,0,0,1,8.077,4.62,1.277,1.277,0,0,0,1.774-.15,1.241,1.241,0,0,0-.155-1.76c-1.92-1.59-5.143-3.21-8.554-4.93-2.332-1.17-4.742-2.38-6.528-3.51A1.292,1.292,0,0,0,342.1,1417.26Zm-1.457-19.52a1.27,1.27,0,0,0-1.044.54,1.236,1.236,0,0,0,.337,1.73,112.55,112.55,0,0,0,10.419,5.98,88.789,88.789,0,0,1,12.962,7.82,1.265,1.265,0,0,0,1.769-.21,1.24,1.24,0,0,0-.219-1.75,90.97,90.97,0,0,0-13.327-8.06,112.188,112.188,0,0,1-10.192-5.84A1.219,1.219,0,0,0,340.647,1397.74Zm7.049-20.63a1.248,1.248,0,0,0-.306,2.46c7.446,1.85,13.872,6.53,18.638,10.41,1.855,1.51,3.9,2.94,5.879,4.32a70.971,70.971,0,0,1,6.793,5.12,1.262,1.262,0,0,0,1.779-.1,1.238,1.238,0,0,0-.092-1.76,76.316,76.316,0,0,0-7.03-5.3c-1.94-1.35-3.946-2.75-5.728-4.2-4.971-4.05-11.693-8.94-19.625-10.91A1.1,1.1,0,0,0,347.7,1377.11Zm21.174-10.23a7.847,7.847,0,0,0-6.892,3.9,7.142,7.142,0,0,0-.53,6.11,7.276,7.276,0,0,0,4.346,4.41,9.283,9.283,0,0,0,7.05.04,7.209,7.209,0,0,0,3.492-3.59,1.182,1.182,0,0,0,.252-0.45c0.056-.17.106-0.35,0.151-0.52,0.018-.06.032-0.12,0.042-0.17a7.618,7.618,0,0,0-4.444-9.01A8.609,8.609,0,0,0,368.87,1366.88Zm0.722,12.64a8.5,8.5,0,0,1-2.93-.56,4.751,4.751,0,0,1-2.841-2.91,4.675,4.675,0,0,1,.325-4,5.552,5.552,0,0,1,7.168-2.17A4.951,4.951,0,0,1,369.592,1379.52Zm-16.739,12.38c-0.013-.12-0.023-0.24-0.037-0.36a1.921,1.921,0,0,1-.079,1.02,1.853,1.853,0,0,1-.98,1.1,2.169,2.169,0,0,1-2.523-.58,2.051,2.051,0,0,1,.644-3.18A2.082,2.082,0,0,1,352.853,1391.9Zm7.347,5.28a2.1,2.1,0,0,1-1.579,1.35,2.315,2.315,0,0,1-1.14-.07A2.245,2.245,0,0,1,358,1394a2.577,2.577,0,0,1,1.729.83A2.443,2.443,0,0,1,360.2,1397.18Zm4.715,5.93c-2.969.56-3.852-4-.882-4.57S367.885,1402.55,364.915,1403.11Zm-15.863,10.02a1.837,1.837,0,0,1-1.037,1.46,0.163,0.163,0,0,0-.219-0.01,1.416,1.416,0,0,1-.712.2,1.823,1.823,0,0,1-1.3-.59c0.184,0.2.353,0.36,0.514,0.51l-0.082-.03a2,2,0,0,1-.656-3.41,2.118,2.118,0,0,1,2.013-.38A2.157,2.157,0,0,1,349.052,1413.13Zm-1.037,1.46c0.266,0.25-.086,1.55-1.714.11a2.232,2.232,0,0,0,.783.08A1.864,1.864,0,0,0,348.015,1414.59Zm7.859,3.59a2.232,2.232,0,0,1-1.918.91h-0.123c-2.036.01-2.654-3.19-.756-3.92,0.038-.02.077-0.03,0.115-0.05a2.264,2.264,0,0,1,1.639-.09A2.083,2.083,0,0,1,355.874,1418.18Zm13.269-41.1a2.281,2.281,0,0,1-2.635-1.77,2.246,2.246,0,0,1,1.792-2.61A2.23,2.23,0,1,1,369.143,1377.08Zm-67.063-6.41-0.308-.03a1.161,1.161,0,0,1-.866-1.79,1.179,1.179,0,0,1,2,.14c0.049,0.09.1,0.18,0.147,0.27A0.987,0.987,0,0,1,302.08,1370.67Zm0.089,4.4c-0.742.14-1.136-1.91-.394-2.05A1.047,1.047,0,1,1,302.169,1375.07Zm3.154,11.92a1.189,1.189,0,0,1-1.852-.55,1.013,1.013,0,0,1,1.484-1.28,1.542,1.542,0,0,1,.521.52,0.417,0.417,0,0,1,.083.15A1.015,1.015,0,0,1,305.323,1386.99Zm-1.261,3.87c-0.743.14-1.1-1.72-.36-1.86A0.963,0.963,0,1,1,304.062,1390.86Zm4.382,10.09a0.72,0.72,0,0,1-.662-0.23,1.026,1.026,0,0,1-.315-0.67c-0.012-.16-0.02-0.33-0.017-0.49,0-.03.073-0.48,0.046-0.3a0.822,0.822,0,0,1,1.415-.46A1.272,1.272,0,0,1,308.444,1400.95Zm2.092,3.53c-1.485.28-1.793-1.31-.308-1.6C310.971,1402.74,311.279,1404.34,310.536,1404.48Zm1.376,3.49c-0.02.08-.037,0.16-0.056,0.25-0.018.04-.027,0.06-0.042,0.09a0.945,0.945,0,0,1-.768.81,1,1,0,0,1-1.168-1.04,1.282,1.282,0,0,1,.215-0.67,1.245,1.245,0,0,1,.2-0.24c0.424-.37.109-0.08,0.043,0a0.843,0.843,0,0,1,1.288-.08,0.921,0.921,0,0,1,.275.57A1.049,1.049,0,0,1,311.912,1407.97Zm3.421,9.41c-0.742.14-1.086-1.64-.344-1.78C316.475,1415.32,316.818,1417.1,315.333,1417.38Zm3.085,4.13a1.14,1.14,0,0,1-1.319-1.33,0.828,0.828,0,0,1,1.554-.29,0.254,0.254,0,0,1,.045.09A0.841,0.841,0,0,1,318.418,1421.51Zm0.412,7.36c-0.006-.04-0.01-0.08-0.014-0.12a0.876,0.876,0,0,1,1.718-.33c0.011,0.04.023,0.08,0.035,0.12C320.889,1429.63,318.937,1430,318.83,1428.87Zm2.243,6.3c-0.742.14-1.119-1.81-.376-1.95A1,1,0,1,1,321.073,1435.17Zm0.725,3.76c-0.742.14-1.057-1.49-.314-1.63C322.969,1437.02,323.283,1438.65,321.8,1438.93Zm-0.058,7.69c-0.111-.03-0.219-0.07-0.329-0.1a0.856,0.856,0,0,1-.421-1.28,0.871,0.871,0,0,1,1.352-.08c0.073,0.09.145,0.18,0.22,0.27A0.751,0.751,0,0,1,321.74,1446.62Zm0.844,4.36c-0.742.14-1.063-1.52-.321-1.66C323.748,1449.04,324.069,1450.7,322.584,1450.98Zm-0.875,3.45c-0.743.14-1.055-1.48-.312-1.62C322.881,1452.53,323.194,1454.15,321.709,1454.43Zm-2.563,7.86-0.32-.12a0.775,0.775,0,0,1-.385-1.16,0.791,0.791,0,0,1,1.233-.07c0.077,0.08.155,0.17,0.233,0.25A0.694,0.694,0,0,1,319.146,1462.29Zm-0.6,3.69c-0.743.14-1.068-1.55-.325-1.69C319.708,1464.01,320.034,1465.7,318.549,1465.98Zm17.693-136.99a10.642,10.642,0,0,0-6.941,2.53c-3.651,3.06-5.28,8.26-3.873,12.38,1.161,3.39,4.225,5.45,8.406,5.66,2.938,0.17,5.286-2.51,5.807-5.05a5.142,5.142,0,0,0-3.669-6.07,1.265,1.265,0,0,0-1.616.74,1.239,1.239,0,0,0,.749,1.6c2.1,0.76,2.283,2.18,2.067,3.24-0.348,1.69-1.864,3.11-3.213,3.05-3.184-.16-5.309-1.53-6.144-3.97-1.072-3.13.267-7.29,3.114-9.68,2.908-2.43,6.745-2.58,10.8-.43,6.81,3.63,3.739,13.29,1.5,20.34-0.221.7-.434,1.37-0.628,2a86.013,86.013,0,0,1-4.1,10.04c-3.64,7.98-7.765,17.02-6.149,26.52a1.258,1.258,0,0,0,1.451,1.02,1.24,1.24,0,0,0,1.033-1.43c-1.488-8.75,2.3-17.06,5.961-25.09a86.978,86.978,0,0,0,4.215-10.34c0.192-.62.4-1.29,0.62-1.97,2.364-7.44,5.938-18.68-2.709-23.28A14.233,14.233,0,0,0,336.242,1328.99Zm19.231,15.43c-5.236,0-10.3,5.22-14.746,15.24a1.236,1.236,0,0,0,.647,1.64,1.262,1.262,0,0,0,1.66-.64c2.528-5.7,7.68-15.05,13.749-13.58a3.3,3.3,0,0,1,2.476,2.73,3.941,3.941,0,0,1-1.134,3.81c-0.721.51-1.685,0.42-2.863-.25a1.269,1.269,0,0,0-1.721.46,1.237,1.237,0,0,0,.461,1.7c2.763,1.58,4.685.75,5.585,0.12a6.34,6.34,0,0,0,2.145-6.31,5.8,5.8,0,0,0-4.354-4.69A8.3,8.3,0,0,0,355.473,1344.42Zm-23.863,9.05a7.512,7.512,0,0,0-4.4,1.42,8.254,8.254,0,0,0-3.488,8.01,6.109,6.109,0,0,0,4.963,4.72,4.391,4.391,0,0,0,4.229-.79c1.675-1.59,1.2-4.37,1.136-4.68a1.26,1.26,0,0,0-2.475.47,3.2,3.2,0,0,1-.408,2.42,2.3,2.3,0,0,1-1.909.15,3.625,3.625,0,0,1-3.065-2.77,5.785,5.785,0,0,1,2.482-5.5,5.412,5.412,0,0,1,6.085-.04,6.206,6.206,0,0,1,3.073,3.95c1.446,5.43-2.956,12.95-3,13.03a1.234,1.234,0,0,0,.449,1.7,1.268,1.268,0,0,0,1.724-.44c0.2-.35,4.972-8.5,3.264-14.92a8.741,8.741,0,0,0-4.247-5.48A8.924,8.924,0,0,0,331.61,1353.47Zm111.73,47.31a1.243,1.243,0,0,0-.664.19c-18.384,11.32-33.057,29.08-46.176,55.89-1.413,2.89-2.748,5.74-4.038,8.5-7.731,16.55-14.407,30.85-32.39,40.17-7.416,3.85-16.646,8.63-25.223,8.12a1.247,1.247,0,1,0-.152,2.49c9.268,0.57,18.851-4.41,26.545-8.4,18.74-9.72,25.583-24.37,33.507-41.33,1.286-2.75,2.615-5.6,4.019-8.47,12.9-26.36,27.277-43.79,45.239-54.85a1.244,1.244,0,0,0,.4-1.72A1.263,1.263,0,0,0,443.34,1400.78Zm-20.817-.5c-13.105,0-25.171,1.56-38.133,10.95-15.265,11.05-20.293,25.59-25.617,41-1.373,3.97-2.793,8.08-4.411,12.19-5.813,14.76-13.647,23.58-23.283,26.22a1.242,1.242,0,0,0-.879,1.53,1.268,1.268,0,0,0,1.55.87c10.445-2.86,18.842-12.19,24.959-27.72,1.638-4.16,3.067-8.29,4.448-12.29,5.192-15.02,10.1-29.2,24.721-39.79,15.423-11.17,29.763-10.76,46.37-10.28,3.3,0.09,6.713.19,10.251,0.2h0a1.245,1.245,0,1,0,0-2.49c-3.507-.01-6.9-0.11-10.189-0.2C428.975,1400.37,425.717,1400.28,422.523,1400.28Zm3.155,6.26a1.256,1.256,0,0,0-.562.13c-12.786,6.31-24.136,20.35-33.734,41.72-1.453,3.23-2.813,6.51-4.128,9.67-1.849,4.46-3.762,9.06-5.928,13.54-3.428,7.09-9.322,16.92-17.937,23.48-6.621,5.03-21.828,13.28-28.564,11.82a1.25,1.25,0,1,0-.54,2.44c8.593,1.86,25.465-8.35,30.639-12.29,9.01-6.85,15.128-17.04,18.674-24.38,2.2-4.54,4.123-9.17,5.986-13.66,1.309-3.15,2.662-6.41,4.1-9.61,9.355-20.83,20.308-34.45,32.557-40.5a1.236,1.236,0,0,0,.565-1.67A1.275,1.275,0,0,0,425.678,1406.54Zm-0.209-.14h-0.046a77.977,77.977,0,0,0-28.288,6.45c-8.815,4.04-14.451,10.57-19.228,17.04-7.464,10.1-11.062,20.12-14.542,29.82a144.258,144.258,0,0,1-7.875,18.99c-2.635,5-10.882,15.41-23.242,19.08a1.24,1.24,0,0,0-.846,1.55,1.254,1.254,0,0,0,1.568.83c13.166-3.9,21.949-14.99,24.754-20.31a145.929,145.929,0,0,0,8.015-19.3c3.419-9.53,6.955-19.39,14.2-29.19,4.577-6.19,9.956-12.45,18.253-16.25a76.429,76.429,0,0,1,27.319-6.21A1.25,1.25,0,0,0,425.469,1406.4Zm-26.83,6.69a1.291,1.291,0,0,0-.572.13,1.245,1.245,0,0,0-.548,1.68c0.362,0.7.73,1.41,1.1,2.11,1.474,2.82,3,5.73,4.209,8.64a1.271,1.271,0,0,0,1.646.67,1.243,1.243,0,0,0,.684-1.63c-1.253-3-2.8-5.96-4.3-8.82-0.368-.71-0.735-1.41-1.1-2.1A1.247,1.247,0,0,0,398.639,1413.09Zm-14.492,10.45a1.257,1.257,0,0,0-.774.27,1.227,1.227,0,0,0-.218,1.74,82.15,82.15,0,0,1,10.781,17.93,1.265,1.265,0,0,0,1.645.68,1.242,1.242,0,0,0,.684-1.63,84.471,84.471,0,0,0-11.123-18.51A1.281,1.281,0,0,0,384.147,1423.54Zm-9.828,12.99a1.286,1.286,0,0,0-.879.35,1.246,1.246,0,0,0-.022,1.77c1.347,1.36,2.8,2.68,4.331,4.07,4.063,3.69,8.264,7.51,10.216,12.13a1.273,1.273,0,0,0,1.648.67,1.243,1.243,0,0,0,.676-1.63c-2.165-5.13-6.573-9.13-10.837-13-1.507-1.37-2.931-2.67-4.231-3.99A1.258,1.258,0,0,0,374.319,1436.53Zm-7.845,17.64a1.244,1.244,0,0,0-.448,2.41c4.4,1.65,7.722,5.41,10.937,9.04a61.222,61.222,0,0,0,5.319,5.54,1.28,1.28,0,0,0,1.778-.11,1.237,1.237,0,0,0-.109-1.76,58.562,58.562,0,0,1-5.092-5.31c-3.419-3.86-6.954-7.86-11.939-9.73A1.166,1.166,0,0,0,366.474,1454.17Zm-5.37,14.47a1.25,1.25,0,0,0-.421,2.43c4.08,1.42,7.318,4.93,10.449,8.32,1.327,1.44,2.7,2.93,4.1,4.21a1.272,1.272,0,0,0,1.78-.08,1.235,1.235,0,0,0-.072-1.76c-1.32-1.2-2.6-2.58-3.947-4.05-3.34-3.62-6.794-7.36-11.468-8.99A1.249,1.249,0,0,0,361.1,1468.64Zm-7.746,14.39a1.249,1.249,0,0,0-.415,2.43c2.947,1.01,6.4,4.59,9.724,10.07a1.26,1.26,0,0,0,1.728.42,1.238,1.238,0,0,0,.431-1.71c-2.565-4.22-6.564-9.59-11.052-11.14A1.212,1.212,0,0,0,353.358,1483.03Zm-9.807,10.29a1.283,1.283,0,0,0-.924.4,1.236,1.236,0,0,0,.067,1.76c2.966,2.73,4.484,6.07,6.028,9.85a1.27,1.27,0,0,0,1.64.69,1.25,1.25,0,0,0,.695-1.63c-1.658-4.05-3.3-7.66-6.65-10.73A1.235,1.235,0,0,0,343.551,1493.32Zm-13.038-3.64a1.3,1.3,0,0,0-.276.03,1.249,1.249,0,0,0-.955,1.49c0.378,1.67.907,3.58,1.468,5.6,1.548,5.59,3.475,12.54,2.85,17.39a1.248,1.248,0,0,0,1.09,1.39,1.261,1.261,0,0,0,1.409-1.08c0.689-5.34-1.228-12.26-2.919-18.36-0.553-1.99-1.075-3.87-1.439-5.48A1.262,1.262,0,0,0,330.513,1489.68Zm42.113,18.23-2.543,1.56c-0.848.53-1.748,1.09-2.691,1.68-8.815,5.53-22.135,13.89-31.765,10.39a1.27,1.27,0,0,0-1.541.58,1.2,1.2,0,0,0-.222.39,1.243,1.243,0,0,0,.769,1.59c7.726,2.7,14.665,3.03,21.833,1.07,9.9-2.72,13.286-4.43,15.511-14.37Zm-25.44,16.03c7.732-2.01,15.6-6.95,21.535-10.67-1.977,6.2-5.028,7.33-12.929,9.49A31.79,31.79,0,0,1,347.186,1523.94Zm97.2-65.57c-16.032,0-36.785,3.51-49.464,19.18-7.193,8.89-14.051,24.38-18.539,35.81a1.247,1.247,0,0,0,.718,1.62,1.264,1.264,0,0,0,1.63-.71c4.424-11.27,11.165-26.52,18.158-35.16,12.678-15.67,34.107-18.57,49.842-18.22,1.537,0.03,3.08.06,4.628,0.08a137.027,137.027,0,0,1,18.457,1.07,1.245,1.245,0,1,0,.38-2.46,138.117,138.117,0,0,0-18.8-1.11c-1.54-.02-3.077-0.04-4.606-0.07Q445.606,1458.37,444.386,1458.37Zm25.337,1.61a1.258,1.258,0,0,0-1.14.71c-8.764,18.36-26.133,34.41-44.248,40.88a1.248,1.248,0,0,0-.757,1.6,1.265,1.265,0,0,0,1.612.75c18.71-6.69,36.637-23.24,45.671-42.16a1.238,1.238,0,0,0-.6-1.66A1.148,1.148,0,0,0,469.723,1459.98ZM413.3,1499.36a67.455,67.455,0,0,0-13.6,1.43c-8.359,1.94-18.81,6.39-23.075,13.05a1.239,1.239,0,0,0,.389,1.72,1.267,1.267,0,0,0,1.739-.38c3.858-6.03,13.649-10.13,21.524-11.97,5.914-1.38,19.16-2.38,23.4.62a1.268,1.268,0,0,0,1.757-.29,1.239,1.239,0,0,0-.292-1.74C422.546,1499.96,417.961,1499.36,413.3,1499.36Zm-22.925-13.44a1.27,1.27,0,0,0-.274.02,1.252,1.252,0,0,0-.958,1.49c0.484,2.17,1.343,4.77,2.173,7.29a49.282,49.282,0,0,1,2.41,8.91,1.269,1.269,0,0,0,1.365,1.14,1.253,1.253,0,0,0,1.145-1.35c-0.218-2.47-1.339-5.87-2.524-9.47-0.812-2.46-1.651-5.01-2.109-7.06A1.25,1.25,0,0,0,390.375,1485.92Zm12.922-14.83a1.942,1.942,0,0,0-.239.02,1.245,1.245,0,0,0-1,1.46,112.5,112.5,0,0,0,3.1,11.51,86.727,86.727,0,0,1,3.576,14.61,1.26,1.26,0,0,0,2.5-.31,88.5,88.5,0,0,0-3.667-15.02,110.689,110.689,0,0,1-3.033-11.26A1.253,1.253,0,0,0,403.3,1471.09Zm19.723-9.65a1.24,1.24,0,0,0-1.08,1.88c3.942,6.52,5.135,14.34,5.735,20.41,0.233,2.37.66,4.8,1.074,7.16a71.2,71.2,0,0,1,1.145,8.38,1.26,1.26,0,0,0,2.517-.13,74.646,74.646,0,0,0-1.18-8.68c-0.4-2.31-.825-4.7-1.049-6.97-0.625-6.34-1.88-14.5-6.08-21.45A1.255,1.255,0,0,0,423.02,1461.44Zm17.6,5.61a8.592,8.592,0,0,0-2.087.27,7.247,7.247,0,0,0-4.739,3.95,7.167,7.167,0,0,0-.082,6.16,9.12,9.12,0,0,0,4.959,4.96,7.329,7.329,0,0,0,5.031-.09,1.29,1.29,0,0,0,.5-0.14c0.164-.09.324-0.18,0.478-0.27,0.057-.03.112-0.06,0.162-0.09a7.6,7.6,0,0,0,3.287-9.48A8.168,8.168,0,0,0,440.62,1467.05Zm0.364,13.24a4.188,4.188,0,0,1-1.455-.25,6.667,6.667,0,0,1-3.531-3.66,4.7,4.7,0,0,1,.072-4.04,4.763,4.763,0,0,1,3.089-2.61,5.527,5.527,0,0,1,6.618,3.48,5.077,5.077,0,0,1-2.289,6.48A6.061,6.061,0,0,1,440.984,1480.29Zm-24-4.42c0.077-.1.157-0.19,0.233-0.28a2.061,2.061,0,0,1-.789.67,1.9,1.9,0,0,1-1.479.09,2.137,2.137,0,0,1-1.368-2.18,2.089,2.089,0,0,1,2.729-1.8A2.055,2.055,0,0,1,416.989,1475.87Zm1.422,8.87a2.116,2.116,0,0,1-2.079-.15,2.713,2.713,0,0,1-.823-3.44,2.317,2.317,0,0,1,3.622-.2,2.519,2.519,0,0,1,.624,1.81A2.438,2.438,0,0,1,418.411,1484.74Zm-0.9,7.5c-2.5-1.68.139-5.53,2.641-3.85S420.008,1493.92,417.507,1492.24Zm-18.373-4.02a1.853,1.853,0,0,1-1.777.31,0.159,0.159,0,0,0-.152-0.16,1.5,1.5,0,0,1-.647-0.36,1.783,1.783,0,0,1-.494-1.32c-0.012.27-.008,0.5,0,0.71-0.01-.02-0.031-0.05-0.04-0.07a1.988,1.988,0,0,1,.155-1.99,2.04,2.04,0,0,1,1.818-.88,2.083,2.083,0,0,1,1.693,1.14A2.131,2.131,0,0,1,399.134,1488.22Zm-1.777.31c0.006,0.36-1.171,1.03-1.291-1.13a2.068,2.068,0,0,0,.492.61A1.979,1.979,0,0,0,397.357,1488.53Zm2.994,8.03a2.2,2.2,0,0,1-2.007-.7,0.58,0.58,0,0,1-.087-0.08c-1.448-1.42.4-4.11,2.267-3.3a0.551,0.551,0,0,1,.112.05,2.214,2.214,0,0,1,1.227,1.08,2.076,2.076,0,0,1-.16,2.07A2.1,2.1,0,0,1,400.351,1496.56Zm38.751-19.77a2.239,2.239,0,0,1-.6-3.1,2.3,2.3,0,0,1,3.13-.59,2.227,2.227,0,0,1,.6,3.09A2.285,2.285,0,0,1,439.1,1476.79Zm-42.849-51.46-0.19-.24a1.151,1.151,0,1,1,1.976-.38c-0.029.1-.061,0.2-0.09,0.3A1.006,1.006,0,0,1,396.253,1425.33Zm-3.074,3.17c-0.627-.42.555-2.14,1.181-1.72A1.046,1.046,0,1,1,393.179,1428.5Zm-5.962,9.85a1.175,1.175,0,0,1-.909-1.7,1.038,1.038,0,0,1,1.033-.67,1.023,1.023,0,0,1,.929.81,1.636,1.636,0,0,1,0,.73,0.672,0.672,0,0,1-.046.17A1.06,1.06,0,0,1,387.217,1438.35Zm-3.987,2.64c-0.627-.42.449-1.99,1.076-1.57A0.966,0.966,0,1,1,383.23,1440.99Zm-4.108,10.2a0.687,0.687,0,0,1-.306-0.62,1.034,1.034,0,0,1,.258-0.7c0.108-.12.216-0.24,0.335-0.35a2.43,2.43,0,0,1,.247-0.18,0.817,0.817,0,0,1,1.331.66A1.285,1.285,0,0,1,379.122,1451.19Zm-1.045,3.96c-1.251-.84-0.328-2.18.922-1.34C379.624,1454.23,378.7,1455.57,378.077,1455.15Zm-1.519,3.43c-0.074.05-.145,0.09-0.217,0.14-0.042.01-.061,0.02-0.093,0.03a0.969,0.969,0,0,1-1.126.04,0.984,0.984,0,0,1-.083-1.55,1.282,1.282,0,0,1,.634-0.33,1.664,1.664,0,0,1,.315-0.03c0.562,0.04.13,0.03,0.028,0.04a0.826,0.826,0,0,1,.965.84,0.9,0.9,0,0,1-.211.6A0.908,0.908,0,0,1,376.558,1458.58Zm-4.306,9.05c-0.625-.42.4-1.92,1.029-1.5C374.532,1466.97,373.5,1468.47,372.252,1467.63Zm-0.437,4.28a1.123,1.123,0,0,1,.016-1.86,0.828,0.828,0,0,1,1.31.88,0.319,0.319,0,0,1-.035.1A0.849,0.849,0,0,1,371.815,1471.91Zm-5.3,6.29a0.775,0.775,0,0,0,.079-0.1,0.875,0.875,0,0,1,1.448.98,0.634,0.634,0,0,0-.062.11C367.425,1480.18,365.781,1479.08,366.514,1478.2Zm-2.914,6.03c-0.625-.42.5-2.07,1.127-1.65A1.007,1.007,0,1,1,363.6,1484.23Zm-2.174,3.16c-0.625-.42.317-1.79,0.943-1.37C363.619,1486.86,362.678,1488.23,361.426,1487.39Zm-5.539,5.4c-0.053-.1-0.1-0.2-0.157-0.3a0.854,0.854,0,1,1,1.627-.31c-0.011.11-.023,0.23-0.033,0.34A0.764,0.764,0,0,1,355.887,1492.79Zm-2.518,3.68c-0.626-.42.336-1.83,0.962-1.41C355.581,1495.9,354.619,1497.31,353.369,1496.47Zm-3.08,1.82c-0.625-.42.31-1.79,0.936-1.36C352.477,1497.76,351.54,1499.13,350.289,1498.29Zm-7.432,3.77c-0.048-.1-0.093-0.21-0.142-0.31a0.778,0.778,0,1,1,1.484-.28c-0.007.11-.012,0.23-0.016,0.34A0.7,0.7,0,0,1,342.857,1502.06Zm-3.054,2.18c-0.624-.42.35-1.84,0.976-1.42C342.029,1503.66,341.055,1505.08,339.8,1504.24Zm102.7-87.59c-4.44,0-8.791,2.46-10.6,6.08-1.6,3.22-.913,6.82,1.9,9.89,1.959,2.14,5.527,1.93,7.709.5a5.133,5.133,0,0,0,1.745-6.87,1.256,1.256,0,0,0-1.672-.6,1.237,1.237,0,0,0-.613,1.65c0.941,2.01.057,3.14-.851,3.74-1.455.95-3.535,0.91-4.451-.09-2.14-2.34-2.661-4.8-1.506-7.11,1.48-2.97,5.4-4.96,9.113-4.66,3.8,0.31,6.619,2.89,7.947,7.25,2.227,7.33-6.847,12.01-13.472,15.43-0.653.34-1.282,0.66-1.874,0.98a87.417,87.417,0,0,1-10.069,4.22c-8.276,3.1-17.656,6.61-23.3,14.45a1.238,1.238,0,0,0,.3,1.74,1.267,1.267,0,0,0,1.756-.29c5.2-7.23,13.811-10.45,22.139-13.56a88.731,88.731,0,0,0,10.367-4.37c0.584-.3,1.2-0.62,1.85-0.96,6.987-3.6,17.547-9.05,14.72-18.35-1.624-5.34-5.324-8.63-10.151-9.03C443.153,1416.67,442.826,1416.65,442.5,1416.65Zm2.5,24.84c-3.65,0-8.193,1.03-13.549,3.1a1.238,1.238,0,0,0-.716,1.61,1.266,1.266,0,0,0,1.631.71c13.653-5.27,18.033-2.25,19.43.01a3.265,3.265,0,0,1-.207,3.67,4.011,4.011,0,0,1-3.518,1.9c-0.875-.15-1.5-0.88-1.849-2.18a1.263,1.263,0,0,0-1.543-.88,1.247,1.247,0,0,0-.89,1.53c0.826,3.05,2.776,3.81,3.865,3.99a6.5,6.5,0,0,0,6.022-2.96,5.7,5.7,0,0,0,.271-6.36C452.25,1442.87,449.223,1441.49,445,1441.49Zm-21.1-9.85a8.266,8.266,0,0,0-6.792,3.34,6.03,6.03,0,0,0,.141,6.81,4.348,4.348,0,0,0,3.553,2.4c2.3,0.08,3.969-2.25,4.15-2.52a1.237,1.237,0,0,0-.334-1.73,1.274,1.274,0,0,0-1.75.33c-0.329.47-1.252,1.47-2.018,1.43a2.28,2.28,0,0,1-1.461-1.23,3.561,3.561,0,0,1-.188-4.1,5.9,5.9,0,0,1,5.686-2.15,5.325,5.325,0,0,1,4.331,4.23,6.147,6.147,0,0,1-.649,4.94c-2.846,4.84-11.346,7.09-11.432,7.11a1.246,1.246,0,1,0,.637,2.41c0.39-.1,9.592-2.53,12.969-8.26a8.635,8.635,0,0,0,.91-6.85,7.807,7.807,0,0,0-6.351-6.04A8.269,8.269,0,0,0,423.9,1431.64Zm-142.665,37.37c-23.829,0-43.216,19.18-43.216,42.77s19.387,42.76,43.216,42.76,43.215-19.18,43.215-42.76S305.066,1469.01,281.237,1469.01Zm0,83.04c-22.44,0-40.7-18.07-40.7-40.27s18.257-40.28,40.7-40.28,40.7,18.07,40.7,40.28S303.677,1552.05,281.237,1552.05Zm0-77.06a36.787,36.787,0,1,0,37.168,36.79A37.019,37.019,0,0,0,281.237,1474.99Zm0,71.07a34.287,34.287,0,1,1,34.648-34.28A34.506,34.506,0,0,1,281.237,1546.06Zm-3.458-66.4a1.255,1.255,0,0,0-1.125,1.37h0a1.266,1.266,0,0,0,1.385,1.11h0a1.249,1.249,0,0,0,1.126-1.37h0a1.265,1.265,0,0,0-1.26-1.12h0A0.536,0.536,0,0,0,277.779,1479.66Zm5.661,1.12a1.242,1.242,0,0,0,1.116,1.37h0a1.251,1.251,0,0,0,1.386-1.1h0a1.248,1.248,0,0,0-1.117-1.37h0a0.605,0.605,0,0,0-.134-0.01h0A1.248,1.248,0,0,0,283.44,1480.78Zm-12.556.36h0a1.244,1.244,0,0,0-.8,1.58h0a1.256,1.256,0,0,0,1.6.79h0a1.245,1.245,0,0,0,.79-1.58h0a1.259,1.259,0,0,0-1.193-.86h0A1.375,1.375,0,0,0,270.884,1481.14Zm19.232,0.82a1.229,1.229,0,0,0,.79,1.58h0a1.246,1.246,0,0,0,1.595-.78h0a1.241,1.241,0,0,0-.789-1.58h0a1.411,1.411,0,0,0-.4-0.06h0A1.247,1.247,0,0,0,290.116,1481.96Zm-25.639,2.1v0.01h0a1.232,1.232,0,0,0-.437,1.7h0a1.266,1.266,0,0,0,1.73.43h0a1.245,1.245,0,0,0,.437-1.71h0a1.278,1.278,0,0,0-1.084-.61h0A1.248,1.248,0,0,0,264.477,1484.06Zm31.9,0.49a1.241,1.241,0,0,0,.42,1.71h0a1.263,1.263,0,0,0,1.73-.42h0a1.248,1.248,0,0,0-.42-1.72h0a1.4,1.4,0,0,0-.655-0.17h0A1.244,1.244,0,0,0,296.381,1484.55Zm-37.531,3.72a1.247,1.247,0,0,0-.05,1.77h0a1.262,1.262,0,0,0,1.78.05h0a1.235,1.235,0,0,0,.05-1.76h0a1.248,1.248,0,0,0-.915-0.39h0A1.286,1.286,0,0,0,258.85,1488.27Zm43.082,0.14a1.236,1.236,0,0,0,.042,1.76h0a1.271,1.271,0,0,0,1.78-.04h0a1.248,1.248,0,0,0-.041-1.77h0a1.254,1.254,0,0,0-.866-0.34h0A1.291,1.291,0,0,0,301.932,1488.41Zm-47.659,5.17a1.247,1.247,0,0,0,.328,1.74h0a1.28,1.28,0,0,0,1.755-.33h0a1.237,1.237,0,0,0-.336-1.73h0a1.217,1.217,0,0,0-.706-0.22h0A1.266,1.266,0,0,0,254.273,1493.58Zm52.253-.23a1.24,1.24,0,0,0-.336,1.74h0a1.278,1.278,0,0,0,1.747.33h0a1.237,1.237,0,0,0,.336-1.73h0a1.252,1.252,0,0,0-1.042-.55h0A1.3,1.3,0,0,0,306.526,1493.35Zm-55.579,6.38v0.01h0a1.225,1.225,0,0,0,.7,1.61h0a1.268,1.268,0,0,0,1.646-.69h0a1.255,1.255,0,0,0-.706-1.62h0a1.274,1.274,0,0,0-.47-0.09h0A1.274,1.274,0,0,0,250.947,1499.73Zm58.988-.57a1.246,1.246,0,0,0-.7,1.62h0a1.272,1.272,0,0,0,1.638.7h0a1.242,1.242,0,0,0,.7-1.62h0a1.259,1.259,0,0,0-1.167-.79h0A1.28,1.28,0,0,0,309.935,1499.16Zm-60.894,7.3a1.248,1.248,0,0,0,1.041,1.43h0a1.248,1.248,0,0,0,1.445-1.03h0a1.241,1.241,0,0,0-1.033-1.43h0a1.477,1.477,0,0,0-.21-0.01h0A1.261,1.261,0,0,0,249.041,1506.46Zm62.969-.9a1.254,1.254,0,0,0-1.05,1.43h0a1.259,1.259,0,0,0,1.444,1.03h0a1.242,1.242,0,0,0,1.042-1.43h0a1.242,1.242,0,0,0-1.243-1.05h0A0.661,0.661,0,0,0,312.01,1505.56Zm-62.171,6.56a1.25,1.25,0,0,0-1.193,1.3h0a1.263,1.263,0,0,0,1.319,1.19h0a1.254,1.254,0,0,0,1.2-1.31h0a1.253,1.253,0,0,0-1.26-1.18h-0.067Zm61.465,1.3h0a1.248,1.248,0,0,0,1.193,1.31h0a1.26,1.26,0,0,0,1.327-1.18h0a1.259,1.259,0,0,0-1.193-1.31h-0.067A1.26,1.26,0,0,0,311.3,1513.42Zm-60.667,5.36a1.249,1.249,0,0,0-.882,1.54h0a1.27,1.27,0,0,0,1.553.87h0a1.255,1.255,0,0,0,.882-1.54h0a1.264,1.264,0,0,0-1.218-.91h0A2.009,2.009,0,0,0,250.637,1518.78Zm59.618,0.99h0a1.237,1.237,0,0,0,.873,1.54h0a1.255,1.255,0,0,0,1.554-.87h0a1.243,1.243,0,0,0-.882-1.53h0a0.952,0.952,0,0,0-.336-0.05h0A1.254,1.254,0,0,0,310.255,1519.77Zm-57.376,5.35a1.242,1.242,0,0,0-.529,1.69h0a1.257,1.257,0,0,0,1.7.52h0a1.235,1.235,0,0,0,.521-1.68h0a1.256,1.256,0,0,0-1.117-.67h0A1.34,1.34,0,0,0,252.879,1525.12Zm54.957,0.63a1.244,1.244,0,0,0,.521,1.69h0a1.277,1.277,0,0,0,1.7-.51h0a1.244,1.244,0,0,0-.521-1.69h0a1.222,1.222,0,0,0-.588-0.14h0A1.256,1.256,0,0,0,307.836,1525.75Zm-51.4,5.09a1.235,1.235,0,0,0-.151,1.75h0a1.257,1.257,0,0,0,1.78.15h0a1.236,1.236,0,0,0,.151-1.75h0a1.273,1.273,0,0,0-.966-0.44h0A1.251,1.251,0,0,0,256.44,1530.84Zm47.743,0.24a1.232,1.232,0,0,0,.143,1.76h0a1.267,1.267,0,0,0,1.772-.15h0a1.228,1.228,0,0,0-.143-1.75h0a1.265,1.265,0,0,0-.815-0.3h0A1.241,1.241,0,0,0,304.183,1531.08Zm-43.024,4.59a1.228,1.228,0,0,0,.236,1.74h0a1.252,1.252,0,0,0,1.763-.23h0a1.23,1.23,0,0,0-.227-1.74h0a1.253,1.253,0,0,0-.772-0.26h0A1.241,1.241,0,0,0,261.159,1535.67Zm38.3-.16h0a1.243,1.243,0,0,0-.244,1.75h0a1.281,1.281,0,0,0,1.764.24h0v-0.01h0a1.243,1.243,0,0,0,.243-1.75h0a1.3,1.3,0,0,0-1.008-.49h0A1.269,1.269,0,0,0,299.455,1535.51Zm-32.643,3.87a1.241,1.241,0,0,0,.6,1.66h0a1.275,1.275,0,0,0,1.68-.6h0a1.237,1.237,0,0,0-.613-1.65h0a1.127,1.127,0,0,0-.529-0.13h0A1.266,1.266,0,0,0,266.812,1539.38Zm27.067-.54h0a1.237,1.237,0,0,0-.613,1.65h0a1.263,1.263,0,0,0,1.671.61h0a1.246,1.246,0,0,0,.613-1.66h0a1.263,1.263,0,0,0-1.151-.72h0A1.075,1.075,0,0,0,293.879,1538.84Zm-20.736,2.96a1.24,1.24,0,0,0,.95,1.49h0a1.257,1.257,0,0,0,1.5-.94h0a1.251,1.251,0,0,0-.949-1.49h0a1.312,1.312,0,0,0-.277-0.03h0A1.246,1.246,0,0,0,273.143,1541.8Zm14.563-.91a1.236,1.236,0,0,0-.958,1.48h0a1.251,1.251,0,0,0,1.5.95h0a1.252,1.252,0,0,0,.966-1.48h0a1.262,1.262,0,0,0-1.235-.99h0A0.863,0.863,0,0,0,287.706,1540.89Zm-6.534.69h-0.059a1.247,1.247,0,0,0-1.268,1.24h0a1.261,1.261,0,0,0,1.26,1.25h0.134v-0.01h0a1.251,1.251,0,0,0,1.26-1.24h0a1.251,1.251,0,0,0-1.26-1.24h-0.067Zm0.114-55.12h-0.049a25.652,25.652,0,0,0-8.7,1.51,1.234,1.234,0,0,0-.756,1.59,1.258,1.258,0,0,0,1.613.75,23.137,23.137,0,0,1,7.841-1.35,1.276,1.276,0,0,0,1.284-1.25A1.234,1.234,0,0,0,281.286,1486.46Zm6.7,0.94a1.265,1.265,0,0,0-1.21.9,1.248,1.248,0,0,0,.862,1.55,22.973,22.973,0,0,1,7.184,3.48,1.26,1.26,0,0,0,1.76-.27,1.237,1.237,0,0,0-.274-1.74,25.546,25.546,0,0,0-7.973-3.87A1.407,1.407,0,0,0,287.983,1487.4Zm-21,3.63a1.255,1.255,0,0,0-.737.23,25.54,25.54,0,0,0-6.182,6.31,1.237,1.237,0,0,0,.333,1.73,1.275,1.275,0,0,0,1.751-.33,23.044,23.044,0,0,1,5.576-5.69A1.241,1.241,0,0,0,266.987,1491.03Zm33.434,4.71a1.308,1.308,0,0,0-.774.26,1.239,1.239,0,0,0-.219,1.75,22.681,22.681,0,0,1,3.753,7,1.267,1.267,0,0,0,1.586.8,1.242,1.242,0,0,0,.811-1.57,25.114,25.114,0,0,0-4.163-7.76A1.279,1.279,0,0,0,300.421,1495.74Zm-42.3,7.29a1.254,1.254,0,0,0-1.2.86,24.989,24.989,0,0,0-1.267,7.89c0,0.26,0,.53.013,0.8a1.26,1.26,0,0,0,2.518-.08q-0.012-.36-0.012-0.72a22.591,22.591,0,0,1,1.142-7.12,1.24,1.24,0,0,0-.8-1.57A1.345,1.345,0,0,0,258.125,1503.03Zm47.416,6.68H305.5a1.256,1.256,0,0,0-1.215,1.29q0.014,0.39.013,0.78a22.62,22.62,0,0,1-1.128,7.07,1.248,1.248,0,0,0,.808,1.57,1.271,1.271,0,0,0,1.588-.8,25.121,25.121,0,0,0,1.252-7.84c0-.29,0-0.58-0.015-0.86A1.255,1.255,0,0,0,305.541,1509.71Zm-47.461,8.18a1.288,1.288,0,0,0-.385.06,1.247,1.247,0,0,0-.814,1.57,25.078,25.078,0,0,0,4.147,7.77,1.255,1.255,0,0,0,1.767.22,1.237,1.237,0,0,0,.223-1.75,22.621,22.621,0,0,1-3.739-7A1.26,1.26,0,0,0,258.08,1517.89Zm43.313,6.11a1.272,1.272,0,0,0-1.045.54,23,23,0,0,1-5.564,5.7,1.238,1.238,0,0,0-.278,1.74,1.27,1.27,0,0,0,1.759.28,25.48,25.48,0,0,0,6.17-6.32,1.238,1.238,0,0,0-.337-1.73A1.3,1.3,0,0,0,301.393,1524Zm-34.519,5.95a1.245,1.245,0,0,0-.746,2.25,25.754,25.754,0,0,0,7.965,3.89,1.265,1.265,0,0,0,1.561-.85,1.25,1.25,0,0,0-.859-1.55,22.955,22.955,0,0,1-7.177-3.5A1.282,1.282,0,0,0,266.874,1529.95Zm22.678,3.2a1.287,1.287,0,0,0-.43.07,23.17,23.17,0,0,1-7.885,1.37h-0.1a1.25,1.25,0,1,0,0,2.5h0.1a25.944,25.944,0,0,0,8.746-1.52A1.246,1.246,0,0,0,289.552,1533.15Z" transform="translate(-90 -1320)"/>
</svg>
